<svg version="1.1" viewBox="0.0 0.0 867.0341207349081 385.2729658792651" fill="none" stroke="none" stroke-linecap="square" stroke-miterlimit="10" xmlns:xlink="http://www.w3.org/1999/xlink" xmlns="http://www.w3.org/2000/svg"><clipPath id="p.0"><path d="m0 0l867.0341 0l0 385.27298l-867.0341 0l0 -385.27298z" clip-rule="nonzero"/></clipPath><g clip-path="url(#p.0)"><path fill="#000000" fill-opacity="0.0" d="m0 0l867.0341 0l0 385.27298l-867.0341 0z" fill-rule="evenodd"/><path fill="#b7b7b7" d="m48.0 78.96157l0 0c0 -25.936161 21.025414 -46.96157 46.96157 -46.96157l187.84064 0l0 0c12.454987 0 24.399841 4.9477234 33.20685 13.754726c8.807007 8.807003 13.75473 20.751858 13.75473 33.206844l0 226.07684c0 25.936157 -21.025421 46.96158 -46.96158 46.96158l-187.84064 0c-25.936157 0 -46.96157 -21.025421 -46.96157 -46.96158z" fill-rule="evenodd"/><path stroke="#666666" stroke-width="1.0" stroke-linejoin="round" stroke-linecap="butt" d="m48.0 78.96157l0 0c0 -25.936161 21.025414 -46.96157 46.96157 -46.96157l187.84064 0l0 0c12.454987 0 24.399841 4.9477234 33.20685 13.754726c8.807007 8.807003 13.75473 20.751858 13.75473 33.206844l0 226.07684c0 25.936157 -21.025421 46.96158 -46.96158 46.96158l-187.84064 0c-25.936157 0 -46.96157 -21.025421 -46.96157 -46.96158z" fill-rule="evenodd"/><path fill="#000000" fill-opacity="0.0" d="m66.375 56.615383l245.00787 0l0 89.16536l-245.00787 0z" fill-rule="evenodd"/><path fill="#000000" d="m117.96902 83.535385l2.796875 -13.359375l2.75 0l-2.796875 13.359375l-2.75 0zm7.355179 -9.671875l2.46875 0l-0.25 1.25q0.9218674 -0.796875 1.7187424 -1.140625q0.8125 -0.34375 1.71875 -0.34375q1.1875 0 1.875 0.6875q0.6875 0.6875 0.6875 1.8125q0 0.515625 -0.296875 1.9375l-1.140625 5.46875l-2.609375 0l1.140625 -5.5q0.25 -1.21875 0.25 -1.453125q0 -0.5 -0.296875 -0.78125q-0.296875 -0.296875 -0.8125 -0.296875q-0.578125 0 -1.28125 0.484375q-0.7031174 0.484375 -1.1093674 1.265625q-0.28125 0.5625 -0.640625 2.3125l-0.84375 3.96875l-2.609375 0l2.03125 -9.671875zm16.067863 0l-0.390625 1.90625l-1.859375 0l-1.625 7.765625l-2.609375 0l1.625 -7.765625l-1.453125 0l0.390625 -1.90625l1.46875 0l0.203125 -1.0q0.25 -1.21875 0.484375 -1.640625q0.3125 -0.59375 0.921875 -0.921875q0.609375 -0.34375 1.609375 -0.34375q1.203125 0 2.53125 0.4375l-0.515625 1.859375q-0.9375 -0.3125 -1.515625 -0.3125q-0.453125 0 -0.671875 0.28125q-0.140625 0.1875 -0.296875 0.953125l-0.140625 0.6875l1.84375 0zm1.353302 0l2.4375 0l-0.390625 1.875q1.375 -2.109375 2.96875 -2.109375q0.5625 0 1.203125 0.28125l-1.0 2.140625q-0.359375 -0.125 -0.75 -0.125q-0.6875 0 -1.390625 0.515625q-0.6875 0.5 -1.078125 1.359375q-0.390625 0.859375 -0.765625 2.703125l-0.640625 3.03125l-2.625 0l2.03125 -9.671875zm9.072754 2.734375l-2.546875 -0.21875q0.4375 -1.28125 1.515625 -2.015625q1.09375 -0.734375 2.890625 -0.734375q1.859375 0 2.75 0.75q0.90625 0.75 0.90625 1.84375q0 0.4375 -0.078125 0.9375q-0.078125 0.484375 -0.546875 2.578125q-0.375 1.734375 -0.375 2.421875q0 0.625 0.21875 1.375l-2.546875 0q-0.15625 -0.53125 -0.1875 -1.09375q-0.578125 0.640625 -1.328125 0.984375q-0.75 0.34375 -1.5 0.34375q-1.203125 0 -1.984375 -0.78125q-0.78125 -0.796875 -0.78125 -2.046875q0 -1.375 0.859375 -2.203125q0.859375 -0.828125 3.0625 -1.0q1.875 -0.15625 2.5 -0.375q0.171875 -0.546875 0.171875 -0.875q0 -0.421875 -0.34375 -0.703125q-0.328125 -0.28125 -1.0 -0.28125q-0.703125 0 -1.109375 0.296875q-0.40625 0.28125 -0.546875 0.796875zm2.484375 2.421875q-0.234375 0.0625 -0.625 0.125q-1.96875 0.234375 -2.578125 0.6875q-0.421875 0.328125 -0.421875 0.890625q0 0.453125 0.328125 0.765625q0.328125 0.3125 0.859375 0.3125q0.59375 0 1.109375 -0.28125q0.53125 -0.296875 0.796875 -0.734375q0.265625 -0.453125 0.453125 -1.40625l0.078125 -0.359375z" fill-rule="nonzero"/><path fill="#000000" d="m163.64276 83.535385l2.796875 -13.359375l2.609375 0l-1.453125 6.953125l3.40625 -3.265625l3.390625 0l-3.890625 3.515625l2.078125 6.15625l-2.625 0l-1.328125 -4.46875l-1.765625 1.5625l-0.609375 2.90625l-2.609375 0zm13.688232 -7.34375q-0.703125 -0.46875 -1.0625 -1.078125q-0.34375 -0.609375 -0.34375 -1.34375q0 -0.859375 0.484375 -1.734375q0.5 -0.890625 1.46875 -1.390625q0.984375 -0.515625 2.21875 -0.515625q1.796875 0 2.796875 0.9375q1.0 0.921875 1.0 2.34375q0 1.0 -0.5625 1.75q-0.5625 0.734375 -1.703125 1.21875q0.828125 0.5 1.234375 1.21875q0.40625 0.71875 0.40625 1.640625q0 1.515625 -0.96875 2.75q-1.40625 1.78125 -3.84375 1.78125q-1.765625 0 -2.84375 -1.03125q-1.0625 -1.046875 -1.0625 -2.671875q0 -1.328125 0.734375 -2.390625q0.75 -1.0625 2.046875 -1.484375zm0.984375 -2.25q0 0.625 0.375 1.015625q0.390625 0.390625 1.0 0.390625q0.703125 0 1.234375 -0.53125q0.53125 -0.53125 0.53125 -1.25q0 -0.640625 -0.390625 -1.046875q-0.390625 -0.40625 -1.0 -0.40625q-0.71875 0 -1.234375 0.53125q-0.515625 0.53125 -0.515625 1.296875zm-1.171875 6.171875q0 0.75 0.40625 1.1875q0.421875 0.421875 1.078125 0.421875q1.015625 0 1.5625 -0.890625q0.546875 -0.890625 0.546875 -1.9375q0 -0.671875 -0.421875 -1.109375q-0.421875 -0.4375 -1.078125 -0.4375q-0.828125 0 -1.46875 0.765625q-0.625 0.75 -0.625 2.0zm6.953827 0.71875l2.53125 -0.40625q0.34375 0.796875 0.84375 1.140625q0.5 0.328125 1.359375 0.328125q0.90625 0 1.4375 -0.40625q0.375 -0.265625 0.375 -0.65625q0 -0.265625 -0.1875 -0.46875q-0.203125 -0.203125 -1.09375 -0.5q-2.359375 -0.78125 -2.9375 -1.234375q-0.875 -0.71875 -0.875 -1.859375q0 -1.15625 0.859375 -1.984375q1.1875 -1.15625 3.546875 -1.15625q1.859375 0 2.8125 0.6875q0.953125 0.6875 1.21875 1.84375l-2.421875 0.421875q-0.1875 -0.53125 -0.609375 -0.796875q-0.59375 -0.34375 -1.40625 -0.34375q-0.828125 0 -1.1875 0.28125q-0.359375 0.265625 -0.359375 0.609375q0 0.375 0.375 0.609375q0.21875 0.140625 1.46875 0.515625q1.90625 0.546875 2.546875 1.09375q0.921875 0.75 0.921875 1.8125q0 1.375 -1.15625 2.390625q-1.15625 1.015625 -3.265625 1.015625q-2.09375 0 -3.25 -0.765625q-1.140625 -0.78125 -1.546875 -2.171875z" fill-rule="nonzero"/><path fill="#000000" d="m206.56259 79.89476l2.53125 0.40625q-0.625 1.6875 -1.859375 2.578125q-1.21875 0.890625 -2.84375 0.890625q-1.859375 0 -2.9375 -1.109375q-1.078125 -1.109375 -1.078125 -3.03125q0 -1.578125 0.65625 -2.984375q0.65625 -1.40625 1.96875 -2.203125q1.328125 -0.8125 2.90625 -0.8125q1.703125 0 2.71875 0.90625q1.03125 0.890625 1.15625 2.34375l-2.484375 0.265625q-0.09375 -0.8125 -0.5 -1.1875q-0.40625 -0.390625 -1.0625 -0.390625q-0.75 0 -1.40625 0.5625q-0.65625 0.5625 -1.015625 1.6875q-0.34375 1.125 -0.34375 2.109375q0 0.859375 0.421875 1.328125q0.421875 0.453125 1.046875 0.453125q0.625 0 1.203125 -0.453125q0.59375 -0.453125 0.921875 -1.359375zm3.7975922 3.640625l2.796875 -13.359375l2.59375 0l-2.78125 13.359375l-2.609375 0zm7.198929 -9.671875l2.609375 0l-1.1875 5.734375q-0.21875 1.015625 -0.21875 1.28125q0 0.421875 0.3125 0.71875q0.3125 0.296875 0.796875 0.296875q0.34375 0 0.671875 -0.125q0.34375 -0.140625 0.6875 -0.40625q0.359375 -0.265625 0.640625 -0.609375q0.28125 -0.359375 0.53125 -0.921875q0.171875 -0.421875 0.375 -1.359375l0.96875 -4.609375l2.609375 0l-2.015625 9.671875l-2.4375 0l0.265625 -1.3125q-1.609375 1.546875 -3.484375 1.546875q-1.203125 0 -1.890625 -0.6875q-0.671875 -0.6875 -0.671875 -1.828125q0 -0.5 0.3125 -2.0l1.125 -5.390625zm9.052231 6.96875l2.53125 -0.40625q0.34375 0.796875 0.84375 1.140625q0.5 0.328125 1.359375 0.328125q0.90625 0 1.4375 -0.40625q0.375 -0.265625 0.375 -0.65625q0 -0.265625 -0.1875 -0.46875q-0.203125 -0.203125 -1.09375 -0.5q-2.359375 -0.78125 -2.9375 -1.234375q-0.875 -0.71875 -0.875 -1.859375q0 -1.15625 0.859375 -1.984375q1.1875 -1.15625 3.546875 -1.15625q1.859375 0 2.8125 0.6875q0.953125 0.6875 1.21875 1.84375l-2.421875 0.421875q-0.1875 -0.53125 -0.609375 -0.796875q-0.59375 -0.34375 -1.40625 -0.34375q-0.828125 0 -1.1875 0.28125q-0.359375 0.265625 -0.359375 0.609375q0 0.375 0.375 0.609375q0.21875 0.140625 1.46875 0.515625q1.90625 0.546875 2.546875 1.09375q0.921875 0.75 0.921875 1.8125q0 1.375 -1.15625 2.390625q-1.15625 1.015625 -3.265625 1.015625q-2.09375 0 -3.25 -0.765625q-1.140625 -0.78125 -1.546875 -2.171875zm11.375717 -5.03125l0.390625 -1.9375l1.28125 0l0.3125 -1.546875l3.0 -1.8125l-0.703125 3.359375l1.59375 0l-0.390625 1.9375l-1.609375 0l-0.84375 4.046875q-0.234375 1.109375 -0.234375 1.265625q0 0.296875 0.1875 0.46875q0.203125 0.171875 0.703125 0.171875q0.171875 0 0.859375 -0.0625l-0.40625 1.9375q-0.671875 0.140625 -1.390625 0.140625q-1.375 0 -2.015625 -0.53125q-0.625 -0.546875 -0.625 -1.484375q0 -0.453125 0.34375 -2.0625l0.8125 -3.890625l-1.265625 0zm14.978302 3.703125l-6.5625 0q-0.015625 0.15625 -0.015625 0.234375q0 0.96875 0.546875 1.5625q0.5625 0.59375 1.359375 0.59375q1.296875 0 2.03125 -1.34375l2.328125 0.390625q-0.671875 1.40625 -1.828125 2.125q-1.140625 0.703125 -2.5625 0.703125q-1.9375 0 -3.171875 -1.234375q-1.21875 -1.234375 -1.21875 -3.265625q0 -2.0 1.109375 -3.546875q1.5 -2.09375 4.296875 -2.09375q1.765625 0 2.8125 1.109375q1.046875 1.09375 1.046875 3.0625q0 0.953125 -0.171875 1.703125zm-2.203125 -1.59375q0 -0.171875 0 -0.265625q0 -1.0625 -0.484375 -1.59375q-0.484375 -0.546875 -1.296875 -0.546875q-0.796875 0 -1.453125 0.609375q-0.640625 0.609375 -0.859375 1.796875l4.09375 0zm5.031967 -4.046875l2.4374847 0l-0.390625 1.875q1.375 -2.109375 2.96875 -2.109375q0.5625 0 1.203125 0.28125l-1.0 2.140625q-0.359375 -0.125 -0.75 -0.125q-0.6875 0 -1.390625 0.515625q-0.6875 0.5 -1.078125 1.359375q-0.390625 0.859375 -0.765625 2.703125l-0.640625 3.03125l-2.6249847 0l2.03125 -9.671875z" fill-rule="nonzero"/><path fill="#000000" d="m163.90564 105.535385l-2.96875 -9.671875l1.703125 0l1.53125 5.578125l0.578125 2.078125q0.046875 -0.15625 0.5 -2.0l1.546875 -5.65625l1.6875 0l1.4375 5.609375l0.484375 1.84375l0.5625 -1.859375l1.65625 -5.59375l1.59375 0l-3.03125 9.671875l-1.703125 0l-1.53125 -5.796875l-0.375 -1.640625l-1.953125 7.4375l-1.71875 0zm11.082306 -4.84375q0 -2.6875 1.484375 -3.96875q1.25 -1.078125 3.046875 -1.078125q2.0 0 3.265625 1.3125q1.265625 1.296875 1.265625 3.609375q0 1.859375 -0.5625 2.9375q-0.5625 1.0625 -1.640625 1.65625q-1.0625 0.59375 -2.328125 0.59375q-2.03125 0 -3.28125 -1.296875q-1.25 -1.3125 -1.25 -3.765625zm1.6875 0q0 1.859375 0.796875 2.796875q0.8125 0.921875 2.046875 0.921875q1.21875 0 2.03125 -0.921875q0.8125 -0.9375 0.8125 -2.84375q0 -1.796875 -0.8125 -2.71875q-0.8125 -0.921875 -2.03125 -0.921875q-1.234375 0 -2.046875 0.921875q-0.796875 0.90625 -0.796875 2.765625zm9.281982 4.84375l0 -9.671875l1.46875 0l0 1.46875q0.5625 -1.03125 1.03125 -1.359375q0.484375 -0.328125 1.0625 -0.328125q0.828125 0 1.6875 0.53125l-0.5625 1.515625q-0.609375 -0.359375 -1.203125 -0.359375q-0.546875 0 -0.96875 0.328125q-0.421875 0.328125 -0.609375 0.890625q-0.28125 0.875 -0.28125 1.921875l0 5.0625l-1.625 0zm6.228302 0l0 -13.359375l1.640625 0l0 7.625l3.890625 -3.9375l2.109375 0l-3.6875 3.59375l4.0625 6.078125l-2.015625 0l-3.203125 -4.953125l-1.15625 1.125l0 3.828125l-1.640625 0zm15.953125 -3.109375l1.6875 0.203125q-0.40625 1.484375 -1.484375 2.3125q-1.078125 0.8125 -2.765625 0.8125q-2.125 0 -3.375 -1.296875q-1.234375 -1.3125 -1.234375 -3.671875q0 -2.453125 1.25 -3.796875q1.265625 -1.34375 3.265625 -1.34375q1.9375 0 3.15625 1.328125q1.234375 1.3125 1.234375 3.703125q0 0.15625 0 0.4375l-7.21875 0q0.09375 1.59375 0.90625 2.453125q0.8125 0.84375 2.015625 0.84375q0.90625 0 1.546875 -0.46875q0.640625 -0.484375 1.015625 -1.515625zm-5.390625 -2.65625l5.40625 0q-0.109375 -1.21875 -0.625 -1.828125q-0.78125 -0.953125 -2.03125 -0.953125q-1.125 0 -1.90625 0.765625q-0.765625 0.75 -0.84375 2.015625zm9.125702 5.765625l0 -9.671875l1.46875 0l0 1.46875q0.5625 -1.03125 1.03125 -1.359375q0.484375 -0.328125 1.0625 -0.328125q0.828125 0 1.6875 0.53125l-0.5625 1.515625q-0.609375 -0.359375 -1.203125 -0.359375q-0.546875 0 -0.96875 0.328125q-0.421875 0.328125 -0.609375 0.890625q-0.28125 0.875 -0.28125 1.921875l0 5.0625l-1.625 0z" fill-rule="nonzero"/><path fill="#ff9900" d="m133.7616 252.0l69.11812 -68.0l69.11812 68.0l-69.11812 68.0z" fill-rule="evenodd"/><path stroke="#666666" stroke-width="1.0" stroke-linejoin="round" stroke-linecap="butt" d="m133.7616 252.0l69.11812 -68.0l69.11812 68.0l-69.11812 68.0z" fill-rule="evenodd"/><path fill="#ff9900" d="m525.7744 198.15822l153.13385 -153.84253l153.13385 153.84253l-153.13385 153.84251z" fill-rule="evenodd"/><path stroke="#666666" stroke-width="1.0" stroke-linejoin="round" stroke-linecap="butt" d="m525.7744 198.15822l153.13385 -153.84253l153.13385 153.84253l-153.13385 153.84251z" fill-rule="evenodd"/><path fill="#000000" fill-opacity="0.0" d="m554.9921 118.83465l245.00787 0l0 89.16535l-245.00787 0z" fill-rule="evenodd"/><path fill="#000000" d="m602.50793 145.75464l-2.75 0l2.328125 -11.125l-3.921875 0l0.46875 -2.234375l10.53125 0l-0.46875 2.234375l-3.859375 0l-2.328125 11.125zm14.297058 -4.03125l-6.5625 0q-0.015625 0.15625 -0.015625 0.234375q0 0.96875 0.546875 1.5625q0.5625 0.59375 1.359375 0.59375q1.296875 0 2.03125 -1.34375l2.328125 0.390625q-0.671875 1.40625 -1.828125 2.125q-1.140625 0.703125 -2.5625 0.703125q-1.9375 0 -3.171875 -1.234375q-1.21875 -1.234375 -1.21875 -3.265625q0 -2.0 1.109375 -3.546875q1.5 -2.09375 4.296875 -2.09375q1.765625 0 2.8125 1.109375q1.046875 1.09375 1.046875 3.0625q0 0.953125 -0.171875 1.703125zm-2.203125 -1.59375q0 -0.171875 0 -0.265625q0 -1.0625 -0.484375 -1.59375q-0.484375 -0.546875 -1.296875 -0.546875q-0.796875 0 -1.453125 0.609375q-0.640625 0.609375 -0.859375 1.796875l4.09375 0zm5.2194214 -4.046875l2.46875 0l-0.25 1.25q0.921875 -0.796875 1.71875 -1.140625q0.8125 -0.34375 1.71875 -0.34375q1.1875 0 1.875 0.6875q0.6875 0.6875 0.6875 1.8125q0 0.515625 -0.296875 1.9375l-1.140625 5.46875l-2.609375 0l1.140625 -5.5q0.25 -1.21875 0.25 -1.453125q0 -0.5 -0.296875 -0.78125q-0.296875 -0.296875 -0.8125 -0.296875q-0.578125 0 -1.28125 0.484375q-0.703125 0.484375 -1.109375 1.265625q-0.28125 0.5625 -0.640625 2.3125l-0.84375 3.96875l-2.609375 0l2.03125 -9.671875zm13.020996 2.734375l-2.546875 -0.21875q0.4375 -1.28125 1.515625 -2.015625q1.09375 -0.734375 2.890625 -0.734375q1.859375 0 2.75 0.75q0.90625 0.75 0.90625 1.84375q0 0.4375 -0.078125 0.9375q-0.078125 0.484375 -0.546875 2.578125q-0.375 1.734375 -0.375 2.421875q0 0.625 0.21875 1.375l-2.546875 0q-0.15625 -0.53125 -0.1875 -1.09375q-0.578125 0.640625 -1.328125 0.984375q-0.75 0.34375 -1.5 0.34375q-1.203125 0 -1.984375 -0.78125q-0.78125 -0.796875 -0.78125 -2.046875q0 -1.375 0.859375 -2.203125q0.859375 -0.828125 3.0625 -1.0q1.875 -0.15625 2.5 -0.375q0.171875 -0.546875 0.171875 -0.875q0 -0.421875 -0.34375 -0.703125q-0.328125 -0.28125 -1.0 -0.28125q-0.703125 0 -1.109375 0.296875q-0.40625 0.28125 -0.546875 0.796875zm2.484375 2.421875q-0.234375 0.0625 -0.625 0.125q-1.96875 0.234375 -2.578125 0.6875q-0.421875 0.328125 -0.421875 0.890625q0 0.453125 0.328125 0.765625q0.328125 0.3125 0.859375 0.3125q0.59375 0 1.109375 -0.28125q0.53125 -0.296875 0.796875 -0.734375q0.265625 -0.453125 0.453125 -1.40625l0.078125 -0.359375zm6.2663574 -5.15625l2.46875 0l-0.25 1.25q0.921875 -0.796875 1.71875 -1.140625q0.8125 -0.34375 1.71875 -0.34375q1.1875 0 1.875 0.6875q0.6875 0.6875 0.6875 1.8125q0 0.515625 -0.296875 1.9375l-1.140625 5.46875l-2.609375 0l1.140625 -5.5q0.25 -1.21875 0.25 -1.453125q0 -0.5 -0.296875 -0.78125q-0.296875 -0.296875 -0.8125 -0.296875q-0.578125 0 -1.28125 0.484375q-0.703125 0.484375 -1.109375 1.265625q-0.28125 0.5625 -0.640625 2.3125l-0.84375 3.96875l-2.609375 0l2.03125 -9.671875zm9.989746 1.9375l0.390625 -1.9375l1.28125 0l0.3125 -1.546875l3.0 -1.8125l-0.703125 3.359375l1.59375 0l-0.390625 1.9375l-1.609375 0l-0.84375 4.046875q-0.234375 1.109375 -0.234375 1.265625q0 0.296875 0.1875 0.46875q0.203125 0.171875 0.703125 0.171875q0.171875 0 0.859375 -0.0625l-0.40625 1.9375q-0.671875 0.140625 -1.390625 0.140625q-1.375 0 -2.015625 -0.53125q-0.625 -0.546875 -0.625 -1.484375q0 -0.453125 0.34375 -2.0625l0.8125 -3.890625l-1.265625 0z" fill-rule="nonzero"/><path fill="#000000" d="m662.2756 145.75464l2.796875 -13.359375l2.609375 0l-1.453125 6.953125l3.40625 -3.265625l3.390625 0l-3.890625 3.515625l2.078125 6.15625l-2.625 0l-1.328125 -4.46875l-1.765625 1.5625l-0.609375 2.90625l-2.609375 0zm13.688232 -7.34375q-0.703125 -0.46875 -1.0625 -1.078125q-0.34375 -0.609375 -0.34375 -1.34375q0 -0.859375 0.484375 -1.734375q0.5 -0.890625 1.46875 -1.390625q0.984375 -0.515625 2.21875 -0.515625q1.796875 0 2.796875 0.9375q1.0 0.921875 1.0 2.34375q0 1.0 -0.5625 1.75q-0.5625 0.734375 -1.703125 1.21875q0.828125 0.5 1.234375 1.21875q0.40625 0.71875 0.40625 1.640625q0 1.515625 -0.96875 2.75q-1.40625 1.78125 -3.84375 1.78125q-1.765625 0 -2.84375 -1.03125q-1.0625 -1.046875 -1.0625 -2.671875q0 -1.328125 0.734375 -2.390625q0.75 -1.0625 2.046875 -1.484375zm0.984375 -2.25q0 0.625 0.375 1.015625q0.390625 0.390625 1.0 0.390625q0.703125 0 1.234375 -0.53125q0.53125 -0.53125 0.53125 -1.25q0 -0.640625 -0.390625 -1.046875q-0.390625 -0.40625 -1.0 -0.40625q-0.71875 0 -1.234375 0.53125q-0.515625 0.53125 -0.515625 1.296875zm-1.171875 6.171875q0 0.75 0.40625 1.1875q0.421875 0.421875 1.078125 0.421875q1.015625 0 1.5625 -0.890625q0.546875 -0.890625 0.546875 -1.9375q0 -0.671875 -0.421875 -1.109375q-0.421875 -0.4375 -1.078125 -0.4375q-0.828125 0 -1.46875 0.765625q-0.625 0.75 -0.625 2.0zm6.9538574 0.71875l2.53125 -0.40625q0.34375 0.796875 0.84375 1.140625q0.5 0.328125 1.359375 0.328125q0.90625 0 1.4375 -0.40625q0.375 -0.265625 0.375 -0.65625q0 -0.265625 -0.1875 -0.46875q-0.203125 -0.203125 -1.09375 -0.5q-2.359375 -0.78125 -2.9375 -1.234375q-0.875 -0.71875 -0.875 -1.859375q0 -1.15625 0.859375 -1.984375q1.1875 -1.15625 3.546875 -1.15625q1.859375 0 2.8125 0.6875q0.953125 0.6875 1.21875 1.84375l-2.421875 0.421875q-0.1875 -0.53125 -0.609375 -0.796875q-0.59375 -0.34375 -1.40625 -0.34375q-0.828125 0 -1.1875 0.28125q-0.359375 0.265625 -0.359375 0.609375q0 0.375 0.375 0.609375q0.21875 0.140625 1.46875 0.515625q1.90625 0.546875 2.546875 1.09375q0.921875 0.75 0.921875 1.8125q0 1.375 -1.15625 2.390625q-1.15625 1.015625 -3.265625 1.015625q-2.09375 0 -3.25 -0.765625q-1.140625 -0.78125 -1.546875 -2.171875z" fill-rule="nonzero"/><path fill="#000000" d="m705.19543 142.11401l2.53125 0.40625q-0.625 1.6875 -1.859375 2.578125q-1.21875 0.890625 -2.84375 0.890625q-1.859375 0 -2.9375 -1.109375q-1.078125 -1.109375 -1.078125 -3.03125q0 -1.578125 0.65625 -2.984375q0.65625 -1.40625 1.96875 -2.203125q1.328125 -0.8125 2.90625 -0.8125q1.703125 0 2.71875 0.90625q1.03125 0.890625 1.15625 2.34375l-2.484375 0.265625q-0.09375 -0.8125 -0.5 -1.1875q-0.40625 -0.390625 -1.0625 -0.390625q-0.75 0 -1.40625 0.5625q-0.65625 0.5625 -1.015625 1.6875q-0.34375 1.125 -0.34375 2.109375q0 0.859375 0.421875 1.328125q0.421875 0.453125 1.046875 0.453125q0.625 0 1.203125 -0.453125q0.59375 -0.453125 0.921875 -1.359375zm3.7976074 3.640625l2.796875 -13.359375l2.59375 0l-2.78125 13.359375l-2.609375 0zm7.1989136 -9.671875l2.609375 0l-1.1875 5.734375q-0.21875 1.015625 -0.21875 1.28125q0 0.421875 0.3125 0.71875q0.3125 0.296875 0.796875 0.296875q0.34375 0 0.671875 -0.125q0.34375 -0.140625 0.6875 -0.40625q0.359375 -0.265625 0.640625 -0.609375q0.28125 -0.359375 0.53125 -0.921875q0.171875 -0.421875 0.375 -1.359375l0.96875 -4.609375l2.609375 0l-2.015625 9.671875l-2.4375 0l0.265625 -1.3125q-1.609375 1.546875 -3.484375 1.546875q-1.203125 0 -1.890625 -0.6875q-0.671875 -0.6875 -0.671875 -1.828125q0 -0.5 0.3125 -2.0l1.125 -5.390625zm9.052246 6.96875l2.53125 -0.40625q0.34375 0.796875 0.84375 1.140625q0.5 0.328125 1.359375 0.328125q0.90625 0 1.4375 -0.40625q0.375 -0.265625 0.375 -0.65625q0 -0.265625 -0.1875 -0.46875q-0.203125 -0.203125 -1.09375 -0.5q-2.359375 -0.78125 -2.9375 -1.234375q-0.875 -0.71875 -0.875 -1.859375q0 -1.15625 0.859375 -1.984375q1.1875 -1.15625 3.546875 -1.15625q1.859375 0 2.8125 0.6875q0.953125 0.6875 1.21875 1.84375l-2.421875 0.421875q-0.1875 -0.53125 -0.609375 -0.796875q-0.59375 -0.34375 -1.40625 -0.34375q-0.828125 0 -1.1875 0.28125q-0.359375 0.265625 -0.359375 0.609375q0 0.375 0.375 0.609375q0.21875 0.140625 1.46875 0.515625q1.90625 0.546875 2.546875 1.09375q0.921875 0.75 0.921875 1.8125q0 1.375 -1.15625 2.390625q-1.15625 1.015625 -3.265625 1.015625q-2.09375 0 -3.25 -0.765625q-1.140625 -0.78125 -1.546875 -2.171875zm11.375671 -5.03125l0.390625 -1.9375l1.28125 0l0.3125 -1.546875l3.0 -1.8125l-0.703125 3.359375l1.59375 0l-0.390625 1.9375l-1.609375 0l-0.84375 4.046875q-0.234375 1.109375 -0.234375 1.265625q0 0.296875 0.1875 0.46875q0.203125 0.171875 0.703125 0.171875q0.171875 0 0.859375 -0.0625l-0.40625 1.9375q-0.671875 0.140625 -1.390625 0.140625q-1.375 0 -2.015625 -0.53125q-0.625 -0.546875 -0.625 -1.484375q0 -0.453125 0.34375 -2.0625l0.8125 -3.890625l-1.265625 0zm14.9783325 3.703125l-6.5625 0q-0.015625 0.15625 -0.015625 0.234375q0 0.96875 0.546875 1.5625q0.5625 0.59375 1.359375 0.59375q1.296875 0 2.03125 -1.34375l2.328125 0.390625q-0.671875 1.40625 -1.828125 2.125q-1.140625 0.703125 -2.5625 0.703125q-1.9375 0 -3.171875 -1.234375q-1.21875 -1.234375 -1.21875 -3.265625q0 -2.0 1.109375 -3.546875q1.5 -2.09375 4.296875 -2.09375q1.765625 0 2.8125 1.109375q1.046875 1.09375 1.046875 3.0625q0 0.953125 -0.171875 1.703125zm-2.203125 -1.59375q0 -0.171875 0 -0.265625q0 -1.0625 -0.484375 -1.59375q-0.484375 -0.546875 -1.296875 -0.546875q-0.796875 0 -1.453125 0.609375q-0.640625 0.609375 -0.859375 1.796875l4.09375 0zm5.0319824 -4.046875l2.4375 0l-0.390625 1.875q1.375 -2.109375 2.96875 -2.109375q0.5625 0 1.203125 0.28125l-1.0 2.140625q-0.359375 -0.125 -0.75 -0.125q-0.6875 0 -1.390625 0.515625q-0.6875 0.5 -1.078125 1.359375q-0.390625 0.859375 -0.765625 2.703125l-0.640625 3.03125l-2.625 0l2.03125 -9.671875z" fill-rule="nonzero"/><path fill="#000000" d="m652.52277 167.75464l-2.96875 -9.671875l1.703125 0l1.53125 5.578125l0.578125 2.078125q0.046875 -0.15625 0.5 -2.0l1.546875 -5.65625l1.6875 0l1.4375 5.609375l0.484375 1.84375l0.5625 -1.859375l1.65625 -5.59375l1.59375 0l-3.03125 9.671875l-1.703125 0l-1.53125 -5.796875l-0.375 -1.640625l-1.953125 7.4375l-1.71875 0zm11.082336 -4.84375q0 -2.6875 1.484375 -3.96875q1.25 -1.078125 3.046875 -1.078125q2.0 0 3.265625 1.3125q1.265625 1.296875 1.265625 3.609375q0 1.859375 -0.5625 2.9375q-0.5625 1.0625 -1.640625 1.65625q-1.0625 0.59375 -2.328125 0.59375q-2.03125 0 -3.28125 -1.296875q-1.25 -1.3125 -1.25 -3.765625zm1.6875 0q0 1.859375 0.796875 2.796875q0.8125 0.921875 2.046875 0.921875q1.21875 0 2.03125 -0.921875q0.8125 -0.9375 0.8125 -2.84375q0 -1.796875 -0.8125 -2.71875q-0.8125 -0.921875 -2.03125 -0.921875q-1.234375 0 -2.046875 0.921875q-0.796875 0.90625 -0.796875 2.765625zm9.281921 4.84375l0 -9.671875l1.46875 0l0 1.46875q0.5625 -1.03125 1.03125 -1.359375q0.484375 -0.328125 1.0625 -0.328125q0.828125 0 1.6875 0.53125l-0.5625 1.515625q-0.609375 -0.359375 -1.203125 -0.359375q-0.546875 0 -0.96875 0.328125q-0.421875 0.328125 -0.609375 0.890625q-0.28125 0.875 -0.28125 1.921875l0 5.0625l-1.625 0zm6.2283325 0l0 -13.359375l1.640625 0l0 7.625l3.890625 -3.9375l2.109375 0l-3.6875 3.59375l4.0625 6.078125l-2.015625 0l-3.203125 -4.953125l-1.15625 1.125l0 3.828125l-1.640625 0zm15.953125 -3.109375l1.6875 0.203125q-0.40625 1.484375 -1.484375 2.3125q-1.078125 0.8125 -2.765625 0.8125q-2.125 0 -3.375 -1.296875q-1.234375 -1.3125 -1.234375 -3.671875q0 -2.453125 1.25 -3.796875q1.265625 -1.34375 3.265625 -1.34375q1.9375 0 3.15625 1.328125q1.234375 1.3125 1.234375 3.703125q0 0.15625 0 0.4375l-7.21875 0q0.09375 1.59375 0.90625 2.453125q0.8125 0.84375 2.015625 0.84375q0.90625 0 1.546875 -0.46875q0.640625 -0.484375 1.015625 -1.515625zm-5.390625 -2.65625l5.40625 0q-0.109375 -1.21875 -0.625 -1.828125q-0.78125 -0.953125 -2.03125 -0.953125q-1.125 0 -1.90625 0.765625q-0.765625 0.75 -0.84375 2.015625zm9.125671 5.765625l0 -9.671875l1.46875 0l0 1.46875q0.5625 -1.03125 1.03125 -1.359375q0.484375 -0.328125 1.0625 -0.328125q0.828125 0 1.6875 0.53125l-0.5625 1.515625q-0.609375 -0.359375 -1.203125 -0.359375q-0.546875 0 -0.96875 0.328125q-0.421875 0.328125 -0.609375 0.890625q-0.28125 0.875 -0.28125 1.921875l0 5.0625l-1.625 0z" fill-rule="nonzero"/><path fill="#000000" fill-opacity="0.0" d="m202.87971 184.0l476.0315 -139.68504" fill-rule="evenodd"/><path stroke="#666666" stroke-width="1.0" stroke-linejoin="round" stroke-linecap="butt" d="m202.87971 184.0l476.0315 -139.68504" fill-rule="evenodd"/><path fill="#000000" fill-opacity="0.0" d="m202.87971 320.0l476.0315 32.0" fill-rule="evenodd"/><path stroke="#666666" stroke-width="1.0" stroke-linejoin="round" stroke-linecap="butt" d="m202.87971 320.0l476.0315 32.0" fill-rule="evenodd"/><path fill="#cfe2f3" d="m658.90826 268.0l0 0c0 2.209137 8.954285 4.0 20.0 4.0c11.045715 0 20.0 -1.790863 20.0 -4.0l0 24.0c0 2.209137 -8.954285 4.0 -20.0 4.0c-11.045715 0 -20.0 -1.790863 -20.0 -4.0z" fill-rule="evenodd"/><path fill="#e2edf7" d="m658.90826 268.0l0 0c0 -2.209137 8.954285 -4.0 20.0 -4.0c11.045715 0 20.0 1.790863 20.0 4.0l0 0c0 2.209137 -8.954285 4.0 -20.0 4.0c-11.045715 0 -20.0 -1.790863 -20.0 -4.0z" fill-rule="evenodd"/><path fill="#000000" fill-opacity="0.0" d="m698.90826 268.0l0 0c0 2.209137 -8.954285 4.0 -20.0 4.0c-11.045715 0 -20.0 -1.790863 -20.0 -4.0l0 0c0 -2.209137 8.954285 -4.0 20.0 -4.0c11.045715 0 20.0 1.790863 20.0 4.0l0 24.0c0 2.209137 -8.954285 4.0 -20.0 4.0c-11.045715 0 -20.0 -1.790863 -20.0 -4.0l0 -24.0" fill-rule="evenodd"/><path stroke="#000000" stroke-width="1.0" stroke-linejoin="round" stroke-linecap="butt" d="m698.90826 268.0l0 0c0 2.209137 -8.954285 4.0 -20.0 4.0c-11.045715 0 -20.0 -1.790863 -20.0 -4.0l0 0c0 -2.209137 8.954285 -4.0 20.0 -4.0c11.045715 0 20.0 1.790863 20.0 4.0l0 24.0c0 2.209137 -8.954285 4.0 -20.0 4.0c-11.045715 0 -20.0 -1.790863 -20.0 -4.0l0 -24.0" fill-rule="evenodd"/><path fill="#000000" d="m668.9395 286.8l0 -9.546875l3.59375 0q0.953125 0 1.453125 0.09375q0.703125 0.125 1.171875 0.453125q0.484375 0.328125 0.765625 0.921875q0.296875 0.59375 0.296875 1.296875q0 1.21875 -0.78125 2.0625q-0.765625 0.84375 -2.796875 0.84375l-2.4375 0l0 3.875l-1.265625 0zm1.265625 -5.0l2.453125 0q1.234375 0 1.75 -0.453125q0.515625 -0.46875 0.515625 -1.28125q0 -0.609375 -0.3125 -1.03125q-0.296875 -0.421875 -0.796875 -0.5625q-0.3125 -0.09375 -1.171875 -0.09375l-2.4375 0l0 3.421875zm10.3428955 5.0l-3.6875 -9.546875l1.359375 0l2.484375 6.9375q0.296875 0.828125 0.5 1.5625q0.21875 -0.78125 0.515625 -1.5625l2.578125 -6.9375l1.28125 0l-3.734375 9.546875l-1.296875 0z" fill-rule="nonzero"/><path fill="#6d9eeb" d="m720.00006 197.39005l39.99994 -21.390045l39.99994 21.390045l-15.2786255 34.609818l-49.442627 0z" fill-rule="evenodd"/><path stroke="#000000" stroke-width="1.0" stroke-linejoin="round" stroke-linecap="butt" d="m720.00006 197.39005l39.99994 -21.390045l39.99994 21.390045l-15.2786255 34.609818l-49.442627 0z" fill-rule="evenodd"/><path fill="#000000" d="m750.5443 205.17795l1.015625 0.25q-0.328125 1.25 -1.15625 1.90625q-0.8125 0.640625 -2.015625 0.640625q-1.234375 0 -2.0 -0.5q-0.765625 -0.5 -1.171875 -1.453125q-0.40625 -0.953125 -0.40625 -2.046875q0 -1.1875 0.453125 -2.078125q0.453125 -0.890625 1.296875 -1.34375q0.84375 -0.46875 1.84375 -0.46875q1.15625 0 1.9375 0.59375q0.78125 0.578125 1.078125 1.640625l-0.984375 0.234375q-0.265625 -0.84375 -0.78125 -1.21875q-0.5 -0.375 -1.265625 -0.375q-0.875 0 -1.46875 0.421875q-0.59375 0.421875 -0.828125 1.140625q-0.234375 0.703125 -0.234375 1.453125q0 0.96875 0.28125 1.703125q0.28125 0.71875 0.875 1.078125q0.59375 0.359375 1.296875 0.359375q0.84375 0 1.4375 -0.484375q0.59375 -0.5 0.796875 -1.453125zm1.9143677 0.21875l0.953125 -0.078125q0.0625 0.5625 0.3125 0.9375q0.25 0.359375 0.765625 0.59375q0.515625 0.21875 1.171875 0.21875q0.578125 0 1.015625 -0.171875q0.4375 -0.171875 0.65625 -0.46875q0.21875 -0.296875 0.21875 -0.65625q0 -0.359375 -0.21875 -0.625q-0.203125 -0.265625 -0.671875 -0.4375q-0.3125 -0.125 -1.359375 -0.375q-1.046875 -0.25 -1.46875 -0.484375q-0.546875 -0.28125 -0.828125 -0.703125q-0.265625 -0.421875 -0.265625 -0.953125q0 -0.578125 0.328125 -1.078125q0.328125 -0.5 0.953125 -0.765625q0.640625 -0.265625 1.40625 -0.265625q0.84375 0 1.484375 0.28125q0.65625 0.265625 1.0 0.796875q0.359375 0.53125 0.390625 1.203125l-0.96875 0.078125q-0.078125 -0.71875 -0.53125 -1.09375q-0.453125 -0.375 -1.328125 -0.375q-0.921875 0 -1.34375 0.34375q-0.40625 0.328125 -0.40625 0.8125q0 0.40625 0.296875 0.671875q0.28125 0.265625 1.515625 0.546875q1.234375 0.28125 1.6875 0.484375q0.671875 0.3125 0.984375 0.78125q0.3125 0.46875 0.3125 1.078125q0 0.609375 -0.34375 1.15625q-0.34375 0.53125 -1.0 0.828125q-0.65625 0.296875 -1.46875 0.296875q-1.046875 0 -1.75 -0.296875q-0.6875 -0.296875 -1.09375 -0.90625q-0.390625 -0.609375 -0.40625 -1.375zm7.62323 2.453125l0 -7.625l1.0 0l0 7.625l-1.0 0z" fill-rule="nonzero"/><path fill="#000000" d="m748.55994 220.84982l0 -0.703125q-0.515625 0.828125 -1.546875 0.828125q-0.65625 0 -1.21875 -0.359375q-0.546875 -0.375 -0.859375 -1.015625q-0.296875 -0.65625 -0.296875 -1.5q0 -0.828125 0.28125 -1.5q0.28125 -0.6875 0.828125 -1.046875q0.546875 -0.359375 1.234375 -0.359375q0.5 0 0.890625 0.21875q0.390625 0.203125 0.625 0.546875l0 -2.734375l0.9375 0l0 7.625l-0.875 0zm-2.953125 -2.75q0 1.046875 0.4375 1.578125q0.453125 0.53125 1.0625 0.53125q0.609375 0 1.03125 -0.5q0.4375 -0.515625 0.4375 -1.53125q0 -1.140625 -0.4375 -1.671875q-0.4375 -0.53125 -1.078125 -0.53125q-0.609375 0 -1.03125 0.515625q-0.421875 0.5 -0.421875 1.609375zm5.2858887 2.75l0 -5.53125l0.84375 0l0 0.84375q0.328125 -0.59375 0.59375 -0.78125q0.28125 -0.1875 0.609375 -0.1875q0.46875 0 0.953125 0.3125l-0.3125 0.859375q-0.34375 -0.203125 -0.6875 -0.203125q-0.3125 0 -0.5625 0.1875q-0.234375 0.1875 -0.34375 0.515625q-0.15625 0.5 -0.15625 1.09375l0 2.890625l-0.9375 0zm3.564209 -6.546875l0 -1.078125l0.9375 0l0 1.078125l-0.9375 0zm0 6.546875l0 -5.53125l0.9375 0l0 5.53125l-0.9375 0zm3.8987427 0l-2.09375 -5.53125l0.984375 0l1.1875 3.3125q0.1875 0.53125 0.359375 1.109375q0.109375 -0.4375 0.34375 -1.046875l1.21875 -3.375l0.96875 0l-2.09375 5.53125l-0.875 0zm7.578125 -1.78125l0.96875 0.125q-0.234375 0.84375 -0.859375 1.3125q-0.609375 0.46875 -1.578125 0.46875q-1.203125 0 -1.921875 -0.75q-0.703125 -0.75 -0.703125 -2.09375q0 -1.390625 0.71875 -2.15625q0.71875 -0.78125 1.859375 -0.78125q1.109375 0 1.8125 0.765625q0.703125 0.75 0.703125 2.125q0 0.078125 0 0.234375l-4.125 0q0.046875 0.921875 0.515625 1.40625q0.46875 0.484375 1.15625 0.484375q0.515625 0 0.875 -0.265625q0.359375 -0.28125 0.578125 -0.875zm-3.078125 -1.515625l3.09375 0q-0.0625 -0.6875 -0.359375 -1.046875q-0.453125 -0.53125 -1.15625 -0.53125q-0.640625 0 -1.09375 0.4375q-0.4375 0.421875 -0.484375 1.140625zm5.2077637 3.296875l0 -5.53125l0.84375 0l0 0.84375q0.328125 -0.59375 0.59375 -0.78125q0.28125 -0.1875 0.609375 -0.1875q0.46875 0 0.953125 0.3125l-0.3125 0.859375q-0.34375 -0.203125 -0.6875 -0.203125q-0.3125 0 -0.5625 0.1875q-0.234375 0.1875 -0.34375 0.515625q-0.15625 0.5 -0.15625 1.09375l0 2.890625l-0.9375 0z" fill-rule="nonzero"/><path fill="#cfe2f3" d="m178.87971 268.0l0 0c0 2.209137 10.745163 4.0 24.0 4.0c13.254822 0 24.0 -1.790863 24.0 -4.0l0 24.0c0 2.209137 -10.745178 4.0 -24.0 4.0c-13.254837 0 -24.0 -1.790863 -24.0 -4.0z" fill-rule="evenodd"/><path fill="#e2edf7" d="m178.87971 268.0l0 0c0 -2.209137 10.745163 -4.0 24.0 -4.0c13.254822 0 24.0 1.790863 24.0 4.0l0 0c0 2.209137 -10.745178 4.0 -24.0 4.0c-13.254837 0 -24.0 -1.790863 -24.0 -4.0z" fill-rule="evenodd"/><path fill="#000000" fill-opacity="0.0" d="m226.87971 268.0l0 0c0 2.209137 -10.745178 4.0 -24.0 4.0c-13.254837 0 -24.0 -1.790863 -24.0 -4.0l0 0c0 -2.209137 10.745163 -4.0 24.0 -4.0c13.254822 0 24.0 1.790863 24.0 4.0l0 24.0c0 2.209137 -10.745178 4.0 -24.0 4.0c-13.254837 0 -24.0 -1.790863 -24.0 -4.0l0 -24.0" fill-rule="evenodd"/><path stroke="#000000" stroke-width="1.0" stroke-linejoin="round" stroke-linecap="butt" d="m226.87971 268.0l0 0c0 2.209137 -10.745178 4.0 -24.0 4.0c-13.254837 0 -24.0 -1.790863 -24.0 -4.0l0 0c0 -2.209137 10.745163 -4.0 24.0 -4.0c13.254822 0 24.0 1.790863 24.0 4.0l0 24.0c0 2.209137 -10.745178 4.0 -24.0 4.0c-13.254837 0 -24.0 -1.790863 -24.0 -4.0l0 -24.0" fill-rule="evenodd"/><path fill="#000000" d="m193.23909 286.8l0 -0.875q-0.65625 1.03125 -1.9375 1.03125q-0.8125 0 -1.515625 -0.453125q-0.6875 -0.453125 -1.078125 -1.265625q-0.375 -0.828125 -0.375 -1.890625q0 -1.03125 0.34375 -1.875q0.34375 -0.84375 1.03125 -1.28125q0.703125 -0.453125 1.546875 -0.453125q0.625 0 1.109375 0.265625q0.5 0.25 0.796875 0.671875l0 -3.421875l1.171875 0l0 9.546875l-1.09375 0zm-3.703125 -3.453125q0 1.328125 0.5625 1.984375q0.5625 0.65625 1.328125 0.65625q0.765625 0 1.296875 -0.625q0.53125 -0.625 0.53125 -1.90625q0 -1.421875 -0.546875 -2.078125q-0.546875 -0.671875 -1.34375 -0.671875q-0.78125 0 -1.3125 0.640625q-0.515625 0.625 -0.515625 2.0zm6.6468506 -4.734375l0 -1.359375l1.171875 0l0 1.359375l-1.171875 0zm0 8.1875l0 -6.90625l1.171875 0l0 6.90625l-1.171875 0zm2.476715 -2.0625l1.15625 -0.1875q0.109375 0.703125 0.546875 1.078125q0.453125 0.359375 1.25 0.359375q0.8125 0 1.203125 -0.328125q0.390625 -0.328125 0.390625 -0.765625q0 -0.390625 -0.359375 -0.625q-0.234375 -0.15625 -1.1875 -0.390625q-1.296875 -0.328125 -1.796875 -0.5625q-0.484375 -0.25 -0.75 -0.65625q-0.25 -0.421875 -0.25 -0.9375q0 -0.453125 0.203125 -0.84375q0.21875 -0.40625 0.578125 -0.671875q0.28125 -0.1875 0.75 -0.328125q0.46875 -0.140625 1.015625 -0.140625q0.8125 0 1.421875 0.234375q0.609375 0.234375 0.90625 0.640625q0.296875 0.390625 0.40625 1.0625l-1.140625 0.15625q-0.078125 -0.53125 -0.453125 -0.828125q-0.375 -0.3125 -1.0625 -0.3125q-0.8125 0 -1.15625 0.265625q-0.34375 0.265625 -0.34375 0.625q0 0.234375 0.140625 0.421875q0.15625 0.1875 0.453125 0.3125q0.171875 0.0625 1.03125 0.296875q1.25 0.328125 1.734375 0.546875q0.5 0.203125 0.78125 0.609375q0.28125 0.40625 0.28125 1.0q0 0.59375 -0.34375 1.109375q-0.34375 0.515625 -1.0 0.796875q-0.640625 0.28125 -1.453125 0.28125q-1.34375 0 -2.046875 -0.5625q-0.703125 -0.5625 -0.90625 -1.65625zm7.1484375 2.0625l0 -9.546875l1.171875 0l0 5.453125l2.765625 -2.8125l1.515625 0l-2.640625 2.5625l2.90625 4.34375l-1.4375 0l-2.28125 -3.53125l-0.828125 0.796875l0 2.734375l-1.171875 0z" fill-rule="nonzero"/><path fill="#efefef" d="m232.0 280.0l24.0 -24.0l0 12.0l376.0 0l0 -12.0l24.0 24.0l-24.0 24.0l0 -12.0l-376.0 0l0 12.0z" fill-rule="evenodd"/><path stroke="#000000" stroke-width="1.0" stroke-linejoin="round" stroke-linecap="butt" d="m232.0 280.0l24.0 -24.0l0 12.0l376.0 0l0 -12.0l24.0 24.0l-24.0 24.0l0 -12.0l-376.0 0l0 12.0z" fill-rule="evenodd"/><path fill="#000000" d="m326.86258 286.91998l-2.5625 -13.359375l1.71875 0l1.546875 7.96875q0.4375 2.171875 0.5625 3.5q0.84375 -1.71875 1.375 -2.71875l4.765625 -8.75l1.84375 0l-7.328125 13.359375l-1.921875 0zm7.782135 -3.671875q0 -2.828125 1.671875 -4.6875q1.375 -1.53125 3.609375 -1.53125q1.75 0 2.8125 1.09375q1.078125 1.09375 1.078125 2.953125q0 1.65625 -0.671875 3.09375q-0.671875 1.4375 -1.921875 2.203125q-1.25 0.765625 -2.625 0.765625q-1.125 0 -2.046875 -0.484375q-0.921875 -0.484375 -1.421875 -1.359375q-0.484375 -0.890625 -0.484375 -2.046875zm1.65625 -0.15625q0 1.359375 0.65625 2.0625q0.65625 0.703125 1.65625 0.703125q0.53125 0 1.046875 -0.203125q0.53125 -0.21875 0.96875 -0.65625q0.453125 -0.4375 0.765625 -1.0q0.3125 -0.5625 0.5 -1.203125q0.28125 -0.90625 0.28125 -1.734375q0 -1.3125 -0.65625 -2.03125q-0.65625 -0.734375 -1.65625 -0.734375q-0.78125 0 -1.421875 0.375q-0.625 0.375 -1.140625 1.09375q-0.515625 0.703125 -0.765625 1.640625q-0.234375 0.9375 -0.234375 1.6875zm8.297577 3.828125l2.796875 -13.359375l1.640625 0l-2.78125 13.359375l-1.65625 0zm10.879211 -1.75q-1.734375 1.96875 -3.5625 1.96875q-1.109375 0 -1.796875 -0.640625q-0.6875 -0.640625 -0.6875 -1.578125q0 -0.609375 0.296875 -2.09375l1.171875 -5.578125l1.65625 0l-1.296875 6.1875q-0.171875 0.765625 -0.171875 1.203125q0 0.546875 0.328125 0.859375q0.34375 0.296875 0.984375 0.296875q0.703125 0 1.359375 -0.328125q0.65625 -0.34375 1.125 -0.921875q0.484375 -0.578125 0.796875 -1.359375q0.1875 -0.5 0.453125 -1.765625l0.875 -4.171875l1.65625 0l-2.03125 9.671875l-1.515625 0l0.359375 -1.75zm3.766327 1.75l2.015625 -9.671875l1.65625 0l-0.34375 1.59375q0.921875 -1.03125 1.640625 -1.421875q0.734375 -0.390625 1.578125 -0.390625q0.90625 0 1.515625 0.484375q0.609375 0.46875 0.796875 1.328125q0.734375 -0.90625 1.546875 -1.359375q0.8125 -0.453125 1.71875 -0.453125q1.21875 0 1.8125 0.578125q0.609375 0.5625 0.609375 1.609375q0 0.4375 -0.203125 1.46875l-1.3125 6.234375l-1.640625 0l1.328125 -6.390625q0.171875 -0.78125 0.171875 -1.125q0 -0.46875 -0.296875 -0.734375q-0.296875 -0.28125 -0.84375 -0.28125q-0.75 0 -1.515625 0.453125q-0.765625 0.4375 -1.1875 1.171875q-0.421875 0.71875 -0.734375 2.21875l-0.984375 4.6875l-1.65625 0l1.375 -6.53125q0.140625 -0.671875 0.140625 -0.953125q0 -0.46875 -0.296875 -0.75q-0.296875 -0.296875 -0.765625 -0.296875q-0.703125 0 -1.484375 0.453125q-0.765625 0.4375 -1.25 1.234375q-0.46875 0.796875 -0.78125 2.265625l-0.953125 4.578125l-1.65625 0zm22.650177 -3.28125l1.609375 0.15625q-0.34375 1.1875 -1.59375 2.265625q-1.234375 1.078125 -2.96875 1.078125q-1.0625 0 -1.96875 -0.5q-0.890625 -0.5 -1.359375 -1.4375q-0.46875 -0.953125 -0.46875 -2.15625q0 -1.59375 0.734375 -3.078125q0.734375 -1.484375 1.890625 -2.203125q1.171875 -0.734375 2.53125 -0.734375q1.734375 0 2.765625 1.078125q1.03125 1.0625 1.03125 2.921875q0 0.71875 -0.125 1.46875l-7.125 0q-0.046875 0.28125 -0.046875 0.5q0 1.359375 0.625 2.078125q0.625 0.71875 1.53125 0.71875q0.84375 0 1.65625 -0.546875q0.828125 -0.5625 1.28125 -1.609375zm-4.78125 -2.40625l5.421875 0q0.015625 -0.25 0.015625 -0.359375q0 -1.234375 -0.625 -1.890625q-0.625 -0.671875 -1.59375 -0.671875q-1.0625 0 -1.9375 0.734375q-0.859375 0.71875 -1.28125 2.1875zm13.230896 5.6875l2.015625 -9.671875l1.65625 0l-0.34375 1.59375q0.921875 -1.03125 1.640625 -1.421875q0.734375 -0.390625 1.578125 -0.390625q0.90625 0 1.515625 0.484375q0.609375 0.46875 0.796875 1.328125q0.734375 -0.90625 1.546875 -1.359375q0.8125 -0.453125 1.71875 -0.453125q1.21875 0 1.8125 0.578125q0.609375 0.5625 0.609375 1.609375q0 0.4375 -0.203125 1.46875l-1.3125 6.234375l-1.640625 0l1.328125 -6.390625q0.171875 -0.78125 0.171875 -1.125q0 -0.46875 -0.296875 -0.734375q-0.296875 -0.28125 -0.84375 -0.28125q-0.75 0 -1.515625 0.453125q-0.765625 0.4375 -1.1875 1.171875q-0.421875 0.71875 -0.734375 2.21875l-0.984375 4.6875l-1.65625 0l1.375 -6.53125q0.140625 -0.671875 0.140625 -0.953125q0 -0.46875 -0.296875 -0.75q-0.296875 -0.296875 -0.765625 -0.296875q-0.703125 0 -1.484375 0.453125q-0.765625 0.4375 -1.25 1.234375q-0.46875 0.796875 -0.78125 2.265625l-0.953125 4.578125l-1.65625 0zm15.837677 -3.671875q0 -2.828125 1.671875 -4.6875q1.375 -1.53125 3.609375 -1.53125q1.75 0 2.8125 1.09375q1.078125 1.09375 1.078125 2.953125q0 1.65625 -0.671875 3.09375q-0.671875 1.4375 -1.921875 2.203125q-1.25 0.765625 -2.625 0.765625q-1.125 0 -2.046875 -0.484375q-0.921875 -0.484375 -1.421875 -1.359375q-0.484375 -0.890625 -0.484375 -2.046875zm1.65625 -0.15625q0 1.359375 0.65625 2.0625q0.65625 0.703125 1.65625 0.703125q0.53125 0 1.046875 -0.203125q0.53125 -0.21875 0.96875 -0.65625q0.453125 -0.4375 0.765625 -1.0q0.3125 -0.5625 0.5 -1.203125q0.28125 -0.90625 0.28125 -1.734375q0 -1.3125 -0.65625 -2.03125q-0.65625 -0.734375 -1.65625 -0.734375q-0.78125 0 -1.421875 0.375q-0.625 0.375 -1.140625 1.09375q-0.515625 0.703125 -0.765625 1.640625q-0.234375 0.9375 -0.234375 1.6875zm15.031982 2.078125q-1.734375 1.96875 -3.5625 1.96875q-1.109375 0 -1.796875 -0.640625q-0.6875 -0.640625 -0.6875 -1.578125q0 -0.609375 0.296875 -2.09375l1.171875 -5.578125l1.65625 0l-1.296875 6.1875q-0.171875 0.765625 -0.171875 1.203125q0 0.546875 0.328125 0.859375q0.34375 0.296875 0.984375 0.296875q0.703125 0 1.359375 -0.328125q0.65625 -0.34375 1.125 -0.921875q0.484375 -0.578125 0.796875 -1.359375q0.1875 -0.5 0.453125 -1.765625l0.875 -4.171875l1.65625 0l-2.03125 9.671875l-1.515625 0l0.359375 -1.75zm3.781952 1.75l2.015625 -9.671875l1.5 0l-0.359375 1.6875q0.96875 -1.0 1.8125 -1.453125q0.859375 -0.453125 1.734375 -0.453125q1.1875 0 1.84375 0.640625q0.671875 0.625 0.671875 1.703125q0 0.53125 -0.234375 1.6875l-1.234375 5.859375l-1.640625 0l1.28125 -6.125q0.1875 -0.890625 0.1875 -1.328125q0 -0.484375 -0.328125 -0.78125q-0.328125 -0.296875 -0.953125 -0.296875q-1.28125 0 -2.265625 0.90625q-0.984375 0.90625 -1.453125 3.125l-0.9375 4.5l-1.640625 0zm14.219482 -1.34375l-0.265625 1.359375q-0.59375 0.140625 -1.15625 0.140625q-0.984375 0 -1.5625 -0.46875q-0.4375 -0.375 -0.4375 -1.0q0 -0.3125 0.234375 -1.46875l1.171875 -5.625l-1.296875 0l0.265625 -1.265625l1.296875 0l0.5 -2.375l1.890625 -1.140625l-0.734375 3.515625l1.625 0l-0.28125 1.265625l-1.609375 0l-1.125 5.359375q-0.203125 1.015625 -0.203125 1.21875q0 0.28125 0.15625 0.4375q0.171875 0.15625 0.5625 0.15625q0.546875 0 0.96875 -0.109375zm4.9447327 1.5625l7.1875 -13.796875l1.421875 0l-7.171875 13.796875l-1.4375 0zm13.277039 -1.625q-1.40625 1.625 -2.953125 1.625q-1.375 0 -2.296875 -1.015625q-0.90625 -1.015625 -0.90625 -2.953125q0 -1.765625 0.71875 -3.21875q0.734375 -1.46875 1.8125 -2.1875q1.09375 -0.734375 2.1875 -0.734375q1.796875 0 2.71875 1.734375l1.09375 -5.203125l1.640625 0l-2.78125 13.359375l-1.53125 0l0.296875 -1.40625zm-4.515625 -2.640625q0 1.0 0.203125 1.59375q0.203125 0.578125 0.671875 0.96875q0.484375 0.375 1.171875 0.375q1.109375 0 2.03125 -1.15625q1.21875 -1.546875 1.21875 -3.828125q0 -1.140625 -0.609375 -1.78125q-0.59375 -0.65625 -1.515625 -0.65625q-0.59375 0 -1.078125 0.265625q-0.484375 0.265625 -0.96875 0.90625q-0.46875 0.625 -0.796875 1.59375q-0.328125 0.96875 -0.328125 1.71875zm15.469482 0.765625l1.609375 0.15625q-0.34375 1.1875 -1.59375 2.265625q-1.234375 1.078125 -2.96875 1.078125q-1.0625 0 -1.96875 -0.5q-0.890625 -0.5 -1.359375 -1.4375q-0.46875 -0.953125 -0.46875 -2.15625q0 -1.59375 0.734375 -3.078125q0.734375 -1.484375 1.890625 -2.203125q1.171875 -0.734375 2.53125 -0.734375q1.734375 0 2.765625 1.078125q1.03125 1.0625 1.03125 2.921875q0 0.71875 -0.125 1.46875l-7.125 0q-0.046875 0.28125 -0.046875 0.5q0 1.359375 0.625 2.078125q0.625 0.71875 1.53125 0.71875q0.84375 0 1.65625 -0.546875q0.828125 -0.5625 1.28125 -1.609375zm-4.78125 -2.40625l5.421875 0q0.015625 -0.25 0.015625 -0.359375q0 -1.234375 -0.625 -1.890625q-0.625 -0.671875 -1.59375 -0.671875q-1.0625 0 -1.9375 0.734375q-0.859375 0.71875 -1.28125 2.1875zm10.500702 5.6875l-1.59375 -9.671875l1.609375 0l0.828125 5.328125q0.140625 0.875 0.34375 2.84375q0.46875 -1.015625 1.203125 -2.359375l3.234375 -5.8125l1.75 0l-5.546875 9.671875l-1.828125 0zm5.3125 0.21875l7.1875 -13.796875l1.421875 0l-7.171875 13.796875l-1.4375 0zm13.277069 -1.625q-1.40625 1.625 -2.953125 1.625q-1.375 0 -2.296875 -1.015625q-0.90625 -1.015625 -0.90625 -2.953125q0 -1.765625 0.71875 -3.21875q0.734375 -1.46875 1.8125 -2.1875q1.09375 -0.734375 2.1875 -0.734375q1.796875 0 2.71875 1.734375l1.09375 -5.203125l1.640625 0l-2.78125 13.359375l-1.53125 0l0.296875 -1.40625zm-4.515625 -2.640625q0 1.0 0.203125 1.59375q0.203125 0.578125 0.671875 0.96875q0.484375 0.375 1.171875 0.375q1.109375 0 2.03125 -1.15625q1.21875 -1.546875 1.21875 -3.828125q0 -1.140625 -0.609375 -1.78125q-0.59375 -0.65625 -1.515625 -0.65625q-0.59375 0 -1.078125 0.265625q-0.484375 0.265625 -0.96875 0.90625q-0.46875 0.625 -0.796875 1.59375q-0.328125 0.96875 -0.328125 1.71875zm10.703827 -7.4375l0.40625 -1.875l1.625 0l-0.390625 1.875l-1.640625 0zm-2.390625 11.484375l2.015625 -9.671875l1.65625 0l-2.03125 9.671875l-1.640625 0zm4.3635864 -3.3125l1.640625 -0.09375q0 0.703125 0.21875 1.21875q0.21875 0.5 0.796875 0.8125q0.59375 0.3125 1.375 0.3125q1.09375 0 1.640625 -0.4375q0.546875 -0.4375 0.546875 -1.015625q0 -0.4375 -0.328125 -0.8125q-0.328125 -0.390625 -1.640625 -0.953125q-1.3125 -0.5625 -1.671875 -0.78125q-0.609375 -0.375 -0.921875 -0.875q-0.3125 -0.515625 -0.3125 -1.171875q0 -1.140625 0.90625 -1.953125q0.921875 -0.828125 2.5625 -0.828125q1.828125 0 2.765625 0.84375q0.953125 0.84375 1.0 2.21875l-1.609375 0.109375q-0.046875 -0.875 -0.625 -1.390625q-0.578125 -0.515625 -1.65625 -0.515625q-0.84375 0 -1.328125 0.40625q-0.46875 0.390625 -0.46875 0.84375q0 0.453125 0.40625 0.796875q0.28125 0.234375 1.421875 0.734375q1.890625 0.8125 2.375 1.28125q0.78125 0.765625 0.78125 1.84375q0 0.71875 -0.4375 1.421875q-0.4375 0.6875 -1.34375 1.109375q-0.90625 0.40625 -2.140625 0.40625q-1.671875 0 -2.84375 -0.828125q-1.1875 -0.828125 -1.109375 -2.703125zm9.1875 3.3125l2.7969055 -13.359375l1.640625 0l-1.734375 8.28125l4.8125 -4.59375l2.171875 0l-4.125 3.609375l2.5 6.0625l-1.8125 0l-1.921875 -4.96875l-2.015625 1.734375l-0.671875 3.234375l-1.6406555 0zm7.7344055 0.21875l7.1875 -13.796875l1.421875 0l-7.171875 13.796875l-1.4375 0zm6.7613525 -0.21875l2.78125 -13.359375l1.65625 0l-1.0 4.78125q0.78125 -0.71875 1.421875 -1.015625q0.640625 -0.296875 1.328125 -0.296875q1.359375 0 2.265625 1.015625q0.90625 1.0 0.90625 2.9375q0 1.28125 -0.375 2.359375q-0.359375 1.0625 -0.890625 1.78125q-0.53125 0.71875 -1.109375 1.15625q-0.578125 0.4375 -1.1875 0.640625q-0.59375 0.21875 -1.140625 0.21875q-0.96875 0 -1.703125 -0.5q-0.71875 -0.515625 -1.125 -1.546875l-0.390625 1.828125l-1.4375 0zm2.4375 -3.96875l-0.015625 0.3125q0 1.234375 0.59375 1.890625q0.59375 0.640625 1.484375 0.640625q0.859375 0 1.578125 -0.609375q0.734375 -0.609375 1.1875 -1.890625q0.46875 -1.28125 0.46875 -2.375q0 -1.21875 -0.59375 -1.890625q-0.578125 -0.671875 -1.4375 -0.671875q-0.90625 0 -1.65625 0.6875q-0.734375 0.6875 -1.234375 2.125q-0.375 1.0625 -0.375 1.78125zm7.3132324 7.703125l0.09375 -1.546875q0.515625 0.140625 1.0 0.140625q0.5 0 0.8125 -0.21875q0.40625 -0.3125 0.875 -1.140625l0.53125 -0.9375l-1.625 -9.703125l1.625 0l0.734375 4.890625q0.21875 1.453125 0.375 2.890625l4.328125 -7.78125l1.71875 0l-6.171875 10.953125q-0.890625 1.609375 -1.59375 2.125q-0.6875 0.515625 -1.578125 0.515625q-0.578125 0 -1.125 -0.1875zm10.1875 -7.75l0.359375 -1.640625l5.015625 0l-0.328125 1.640625l-5.046875 0zm8.3064575 -7.46875l0.40625 -1.875l1.625 0l-0.390625 1.875l-1.640625 0zm-2.390625 11.484375l2.015625 -9.671875l1.65625 0l-2.03125 9.671875l-1.640625 0zm10.722961 -1.40625q-1.40625 1.625 -2.953125 1.625q-1.375 0 -2.296875 -1.015625q-0.90625 -1.015625 -0.90625 -2.953125q0 -1.765625 0.71875 -3.21875q0.734375 -1.46875 1.8125 -2.1875q1.09375 -0.734375 2.1875 -0.734375q1.796875 0 2.71875 1.734375l1.09375 -5.203125l1.640625 0l-2.78125 13.359375l-1.53125 0l0.296875 -1.40625zm-4.515625 -2.640625q0 1.0 0.203125 1.59375q0.203125 0.578125 0.671875 0.96875q0.484375 0.375 1.171875 0.375q1.109375 0 2.03125 -1.15625q1.21875 -1.546875 1.21875 -3.828125q0 -1.140625 -0.609375 -1.78125q-0.59375 -0.65625 -1.515625 -0.65625q-0.59375 0 -1.078125 0.265625q-0.484375 0.265625 -0.96875 0.90625q-0.46875 0.625 -0.796875 1.59375q-0.328125 0.96875 -0.328125 1.71875z" fill-rule="nonzero"/><path fill="#6d9eeb" d="m72.000084 141.39005l39.999916 -21.390045l39.99991 21.390045l-15.278595 34.609818l-49.44262 0z" fill-rule="evenodd"/><path stroke="#000000" stroke-width="1.0" stroke-linejoin="round" stroke-linecap="butt" d="m72.000084 141.39005l39.999916 -21.390045l39.99991 21.390045l-15.278595 34.609818l-49.44262 0z" fill-rule="evenodd"/><path fill="#000000" d="m97.059944 145.34981l0 -7.625l1.015625 0l0 3.78125l3.78125 -3.78125l1.375 0l-3.203125 3.09375l3.34375 4.53125l-1.34375 0l-2.71875 -3.859375l-1.234375 1.21875l0 2.640625l-1.015625 0zm10.6545105 0l0 -0.8125q-0.65625 0.9375 -1.75 0.9375q-0.5 0 -0.921875 -0.1875q-0.421875 -0.1875 -0.625 -0.46875q-0.203125 -0.28125 -0.296875 -0.703125q-0.046875 -0.265625 -0.046875 -0.875l0 -3.421875l0.9375 0l0 3.0625q0 0.734375 0.046875 1.0q0.09375 0.359375 0.375 0.578125q0.296875 0.203125 0.703125 0.203125q0.421875 0 0.796875 -0.203125q0.375 -0.21875 0.515625 -0.59375q0.15625 -0.375 0.15625 -1.078125l0 -2.96875l0.9375 0l0 5.53125l-0.828125 0zm3.1608734 0l-0.859375 0l0 -7.625l0.9375 0l0 2.71875q0.59375 -0.75 1.5 -0.75q0.515625 0 0.96875 0.21875q0.453125 0.203125 0.75 0.578125q0.296875 0.359375 0.453125 0.890625q0.171875 0.53125 0.171875 1.125q0 1.421875 -0.703125 2.203125q-0.703125 0.765625 -1.6875 0.765625q-0.96875 0 -1.53125 -0.8125l0 0.6875zm0 -2.796875q0 0.984375 0.265625 1.421875q0.4375 0.734375 1.1875 0.734375q0.625 0 1.0625 -0.53125q0.453125 -0.546875 0.453125 -1.59375q0 -1.078125 -0.4375 -1.59375q-0.421875 -0.515625 -1.03125 -0.515625q-0.609375 0 -1.0625 0.53125q-0.4375 0.53125 -0.4375 1.546875zm8.848373 1.015625l0.96875 0.125q-0.234375 0.84375 -0.859375 1.3125q-0.609375 0.46875 -1.578125 0.46875q-1.203125 0 -1.921875 -0.75q-0.703125 -0.75 -0.703125 -2.09375q0 -1.390625 0.71875 -2.15625q0.71875 -0.78125 1.859375 -0.78125q1.109375 0 1.8125 0.765625q0.703125 0.75 0.703125 2.125q0 0.078125 0 0.234375l-4.125 0q0.046875 0.921875 0.515625 1.40625q0.46875 0.484375 1.15625 0.484375q0.515625 0 0.875 -0.265625q0.359375 -0.28125 0.578125 -0.875zm-3.078125 -1.515625l3.09375 0q-0.0625 -0.6875 -0.359375 -1.046875q-0.453125 -0.53125 -1.15625 -0.53125q-0.640625 0 -1.09375 0.4375q-0.4375 0.421875 -0.484375 1.140625z" fill-rule="nonzero"/><path fill="#000000" d="m99.278694 158.34982l-2.953125 -7.625l1.09375 0l1.984375 5.53125q0.234375 0.671875 0.390625 1.25q0.1875 -0.625 0.421875 -1.25l2.0625 -5.53125l1.03125 0l-3.0 7.625l-1.03125 0zm4.6180573 -6.546875l0 -1.078125l0.9375 0l0 1.078125l-0.9375 0zm0 6.546875l0 -5.53125l0.9375 0l0 5.53125l-0.9375 0zm2.3518524 0l0 -5.53125l0.84375 0l0 0.84375q0.328125 -0.59375 0.59375 -0.78125q0.28125 -0.1875 0.609375 -0.1875q0.46875 0 0.953125 0.3125l-0.3125 0.859375q-0.34375 -0.203125 -0.6875 -0.203125q-0.3125 0 -0.5625 0.1875q-0.234375 0.1875 -0.34375 0.515625q-0.15625 0.5 -0.15625 1.09375l0 2.890625l-0.9375 0zm5.6111145 -0.84375l0.125 0.828125q-0.390625 0.09375 -0.703125 0.09375q-0.5 0 -0.78125 -0.15625q-0.28125 -0.171875 -0.40625 -0.4375q-0.109375 -0.265625 -0.109375 -1.109375l0 -3.171875l-0.6875 0l0 -0.734375l0.6875 0l0 -1.359375l0.9375 -0.5625l0 1.921875l0.9375 0l0 0.734375l-0.9375 0l0 3.234375q0 0.390625 0.046875 0.515625q0.046875 0.109375 0.15625 0.1875q0.109375 0.0625 0.328125 0.0625q0.15625 0 0.40625 -0.046875z" fill-rule="nonzero"/><path fill="#000000" d="m96.26307 171.34982l2.921875 -7.625l1.09375 0l3.125 7.625l-1.15625 0l-0.890625 -2.3125l-3.1875 0l-0.828125 2.3125l-1.078125 0zm2.203125 -3.125l2.578125 0l-0.796875 -2.125q-0.359375 -0.953125 -0.53125 -1.578125q-0.15625 0.734375 -0.421875 1.453125l-0.828125 2.25zm5.7482605 3.125l0 -7.625l2.875 0q0.75 0 1.15625 0.0625q0.5625 0.09375 0.9375 0.359375q0.390625 0.265625 0.609375 0.75q0.234375 0.46875 0.234375 1.03125q0 0.96875 -0.625 1.65625q-0.609375 0.671875 -2.234375 0.671875l-1.953125 0l0 3.09375l-1.0 0zm1.0 -4.0l1.96875 0q0.984375 0 1.390625 -0.359375q0.421875 -0.375 0.421875 -1.03125q0 -0.484375 -0.25 -0.8125q-0.234375 -0.34375 -0.640625 -0.453125q-0.25 -0.078125 -0.9375 -0.078125l-1.953125 0l0 2.734375zm6.2795105 4.0l0 -7.625l1.0 0l0 7.625l-1.0 0z" fill-rule="nonzero"/><path fill="#efefef" d="m176.10309 159.16536l25.373474 -20.996704l-1.102356 11.582672l510.50055 47.784103l-2.204773 23.16536l-510.5005 -47.784103l-1.102356 11.582672z" fill-rule="evenodd"/><path stroke="#000000" stroke-width="1.0" stroke-linejoin="round" stroke-linecap="butt" d="m176.10309 159.16536l25.373474 -20.996704l-1.102356 11.582672l510.50055 47.784103l-2.204773 23.16536l-510.5005 -47.784103l-1.102356 11.582672z" fill-rule="evenodd"/><path fill="#000000" d="m286.8248 176.47943l8.810883 -12.593063l2.0846252 0.1951294l0.9277954 13.504623l-1.7112732 -0.16018677l-0.2892151 -3.887619l-5.382721 -0.50382996l-2.4954834 3.6269531l-1.9446106 -0.18200684zm5.332672 -4.7424164l4.4026184 0.41209412l-0.19509888 -3.3923187q-0.10757446 -2.0031128 -0.059509277 -3.33255q-0.5592346 1.0932617 -1.5799255 2.5827484l-2.5680847 3.7300262zm8.223511 6.011307l4.0504456 -13.0386505l5.553833 0.51986694q1.4468079 0.13542175 2.1298523 0.54460144q0.6845398 0.39363098 1.0742798 1.24617q0.4067688 0.8384247 0.31201172 1.8339386q-0.07846069 0.82440186 -0.50213623 1.6478729q-0.40811157 0.82492065 -0.9747925 1.3368378q-0.56518555 0.4963684 -1.1207886 0.72683716q-0.5555725 0.23048401 -1.1600647 0.31513977q-1.3038025 0.1761322 -2.6105957 0.05381775l-3.329193 -0.31163025l-1.6337891 5.2926483l-1.7890625 -0.16744995zm3.877594 -6.6048737l2.940277 0.27520752q1.6957092 0.15872192 2.5231628 -0.12477112q0.8444824 -0.29759216 1.3978271 -0.9990692q0.5548096 -0.717041 0.6347351 -1.5570068q0.062164307 -0.6532898 -0.16378784 -1.0824738q-0.20895386 -0.44326782 -0.65789795 -0.6736145q-0.44747925 -0.24589539 -1.754242 -0.36820984l-3.4069824 -0.3189087l-1.513092 4.8488464zm8.776276 7.7893066l4.0504456 -13.038635l1.7734985 0.16600037l-4.0504456 13.038635l-1.7734985 -0.16600037zm16.863312 -1.9682465l1.6327515 0.3254547q-0.79400635 1.746109 -2.014038 2.5264282q-1.2185669 0.76475525 -2.6809082 0.6278839q-1.5712585 -0.14707947 -2.4551392 -1.2498779q-0.8668213 -1.1168823 -0.69363403 -2.936798q0.14953613 -1.5710144 0.91690063 -3.03714q0.78289795 -1.4646606 2.009613 -2.1501923q1.242279 -0.68408203 2.7513123 -0.5428314q1.5401611 0.14416504 2.359558 1.0996857q0.83496094 0.9569855 0.6972656 2.4035645l-1.6282654 -0.042556763q0.071777344 -0.91918945 -0.4083252 -1.4819946q-0.46450806 -0.56137085 -1.304596 -0.6399994q-0.995636 -0.09320068 -1.7860413 0.46055603q-0.7748413 0.5552063 -1.3162537 1.7913818q-0.5258789 1.2376251 -0.6383972 2.4197845q-0.11694336 1.2288208 0.36831665 1.9019775q0.48675537 0.6575928 1.2801819 0.7318573q0.793396 0.07426453 1.5823059 -0.46392822q0.7889099 -0.53819275 1.3273926 -1.7432556zm8.911377 3.1724396q-0.9252014 0.65097046 -1.7511902 0.9189148q-0.8104248 0.26939392 -1.7127075 0.18493652q-1.3379211 -0.12522888 -2.0884094 -0.9801483q-0.7334595 -0.8690033 -0.6165161 -2.097824q0.07550049 -0.79330444 0.50808716 -1.380539q0.43258667 -0.5872345 1.0748291 -0.9037628q0.6437378 -0.33207703 1.5297241 -0.40608215q0.5704346 -0.05645752 2.1164856 0.025482178q1.561615 0.08340454 2.2557373 -0.1184082q0.2503357 -0.65138245 0.29327393 -1.102478q0.054779053 -0.57551575 -0.33416748 -0.94148254q-0.51712036 -0.5035095 -1.6216736 -0.6069031q-1.0267639 -0.09609985 -1.7401123 0.30792236q-0.6963501 0.3899231 -1.0718689 1.2022095l-1.6512756 -0.29579163q0.64959717 -1.3829956 1.8111267 -2.0432434q1.177063 -0.65878296 2.8572388 -0.5015259q1.789032 0.16746521 2.749939 1.1205444q0.7341919 0.69644165 0.6364746 1.723053q-0.07254028 0.7621918 -0.388031 1.7684174l-0.7569275 2.3459167q-0.37252808 1.110733 -0.4406128 1.8262634q-0.042938232 0.45108032 0.07788086 1.3255157l-1.6646118 -0.1558075q-0.08004761 -0.47828674 -0.07269287 -1.2151794zm0.95758057 -3.6296844q-0.35559082 0.10795593 -0.76745605 0.14787292q-0.39483643 0.025802612 -1.3215942 0.033218384q-1.4430847 -0.009521484 -2.0534973 0.13734436q-0.60894775 0.1313324 -0.96151733 0.537735q-0.3355713 0.39231873 -0.3843994 0.9056244q-0.06515503 0.68440247 0.37417603 1.1806335q0.44082642 0.4806671 1.3120117 0.56222534q0.8245239 0.0771637 1.6112366 -0.2729187q0.7881775 -0.3656311 1.2963257 -1.0870361q0.50961304 -0.736969 0.89471436 -2.144699zm2.6317139 5.1740265l4.0504456 -13.038635l1.6334839 0.15289307l-4.0348816 13.0401l-1.6490479 -0.15435791zm4.12677 0.38627625l4.0504456 -13.038635l1.6334839 0.15289307l-4.0348816 13.0401l-1.6490479 -0.15435791zm4.736206 -2.8836517l1.642395 0.059570312q-0.06661987 0.6999512 0.10232544 1.2336426q0.17041016 0.5181427 0.71640015 0.8831177q0.5615845 0.36642456 1.3394165 0.4392395q1.0889893 0.10192871 1.6749573 -0.28263855q0.5859375 -0.38456726 0.64071655 -0.960083q0.04144287 -0.43553162 -0.24972534 -0.83943176q-0.28970337 -0.41944885 -1.5431824 -1.1017303q-1.253479 -0.68229675 -1.5905762 -0.933548q-0.5711975 -0.43011475 -0.83496094 -0.9569855q-0.26229858 -0.5424347 -0.20010376 -1.1957245q0.108062744 -1.135498 1.0873413 -1.8598785q0.9963379 -0.7384949 2.6298218 -0.5856018q1.8201599 0.17037964 2.673645 1.097702q0.86901855 0.92878723 0.7854309 2.3019714l-1.6127319 -0.041107178q0.036224365 -0.87542725 -0.49053955 -1.4426117q-0.5267334 -0.56718445 -1.6001892 -0.6676636q-0.8400574 -0.07862854 -1.3608398 0.2806549q-0.5036926 0.34516907 -0.54663086 0.79626465q-0.042938232 0.45108032 0.3289795 0.83114624q0.2578125 0.25953674 1.3460999 0.8635864q1.8054199 0.9850464 2.2432861 1.4968262q0.70529175 0.83499146 0.6031494 1.9082642q-0.06808472 0.71551514 -0.5703125 1.3747101q-0.5007324 0.643631 -1.4429932 0.9791565q-0.9407959 0.31996155 -2.1697998 0.20492554q-1.6646118 -0.1558075 -2.7529297 -1.0894165q-1.1038818 -0.93507385 -0.8484497 -2.7943573zm14.592682 0.65971375l0.51327515 -1.599762l4.9937744 0.46743774l-0.4821167 1.6026611l-5.024933 -0.4703369zm21.756927 1.345993l1.7342529 0.41342163q-1.0591736 2.223465 -2.7740479 3.2556458q-1.6993103 1.0336304 -3.6750793 0.84869385q-2.42688 -0.22717285 -3.7174683 -1.8388367q-1.2750549 -1.6102142 -1.0115662 -4.378952q0.34197998 -3.5931396 2.7279358 -5.739502q2.1274414 -1.9037628 4.9743958 -1.6372833q2.1157532 0.19804382 3.3144531 1.4558563q1.2157593 1.2437134 1.234436 3.1914215l-1.6779175 -0.015808105q-0.11273193 -1.4543457 -0.8691406 -2.2470398q-0.7564392 -0.7926941 -2.0476685 -0.9135437q-2.4424438 -0.22862244 -4.158722 1.807785q-1.484436 1.7442474 -1.7286987 4.3107758q-0.19393921 2.037674 0.71365356 3.221161q0.9090576 1.167923 2.5114136 1.3179169q1.3845825 0.1295929 2.5735168 -0.65364075q1.2059631 -0.79733276 1.8762512 -2.3980713zm2.3899536 4.9473877l2.9232178 -9.4405365l1.4468079 0.13542175l-0.5910034 1.9220428q0.85183716 -1.0344849 1.6022339 -1.497818q0.76742554 -0.47743225 1.5141602 -0.407547q0.49783325 0.04660034 1.1794128 0.471344l-0.8140259 1.4617462q-0.40600586 -0.35186768 -0.9038086 -0.39846802q-0.8712158 -0.08154297 -1.8652954 0.7984009q-0.99261475 0.8643799 -1.7598877 3.3191833l-1.176117 3.781845l-1.5556946 -0.14561462zm13.559418 -2.0263977l1.5875549 0.30552673q-0.45477295 1.1501312 -1.8014832 2.106903q-1.3311462 0.9582367 -3.057953 0.7966156q-1.0578918 -0.09902954 -1.9128113 -0.6812439q-0.839386 -0.5807495 -1.2172852 -1.5577087q-0.3764038 -0.9925232 -0.26239014 -2.1902466q0.15100098 -1.5865784 1.0227966 -2.9958344q0.8718262 -1.4092712 2.0911255 -2.0170288q1.2363586 -0.6218567 2.5898132 -0.49516296q1.7268372 0.16163635 2.6514587 1.3310089q0.9260864 1.1538391 0.74990845 3.0048523q-0.06808472 0.71551514 -0.26361084 1.4504852l-7.093994 -0.6640167q-0.07330322 0.2756195 -0.09402466 0.49339294q-0.12878418 1.3532562 0.42538452 2.1270294q0.5541687 0.77375793 1.4564819 0.85821533q0.8400879 0.07862854 1.7008667 -0.39006042q0.8778076 -0.4827881 1.4281616 -1.482727zm-4.5324707 -2.8410187l5.398285 0.5052948q0.039245605 -0.24742126 0.049591064 -0.35630798q0.11694336 -1.2288208 -0.44314575 -1.9403687q-0.55862427 -0.72709656 -1.5231628 -0.8173828q-1.0578613 -0.09901428 -1.9986267 0.5505066q-0.9237366 0.63542175 -1.4829407 2.058258zm14.090515 5.822876q-0.9252014 0.6509857 -1.7511902 0.91893005q-0.8104248 0.26939392 -1.7127075 0.18493652q-1.3379211 -0.12522888 -2.0884094 -0.9801483q-0.7334595 -0.86901855 -0.6165161 -2.0978394q0.07550049 -0.7932892 0.50808716 -1.3805237q0.43258667 -0.58724976 1.0748291 -0.9037628q0.6437378 -0.33207703 1.5297241 -0.40608215q0.57040405 -0.05645752 2.1164856 0.025482178q1.561615 0.08338928 2.2557373 -0.11842346q0.2503357 -0.65138245 0.29327393 -1.1024628q0.054779053 -0.575531 -0.33416748 -0.9414978q-0.51712036 -0.5035095 -1.6216736 -0.6068878q-1.0267639 -0.09611511 -1.7401428 0.30792236q-0.6963196 0.3899231 -1.0718384 1.2022095l-1.6512756 -0.29580688q0.64956665 -1.3829803 1.8110962 -2.0432281q1.1770935 -0.6587982 2.8572693 -0.5015259q1.789032 0.16746521 2.749939 1.1205292q0.7341919 0.6964569 0.6364746 1.7230682q-0.07254028 0.7621918 -0.388031 1.7684174l-0.7569275 2.3459167q-0.37252808 1.110733 -0.4406433 1.8262482q-0.042907715 0.45109558 0.07791138 1.325531l-1.6646118 -0.1558075q-0.08004761 -0.47828674 -0.07269287 -1.2151947zm0.95758057 -3.6296692q-0.35559082 0.10795593 -0.76745605 0.14785767q-0.39486694 0.025817871 -1.3215942 0.033233643q-1.4430847 -0.009536743 -2.0534973 0.13734436q-0.60894775 0.1313324 -0.96151733 0.537735q-0.3355713 0.39230347 -0.38442993 0.90560913q-0.06512451 0.6844177 0.37420654 1.1806488q0.44082642 0.4806671 1.3120117 0.5622101q0.8245239 0.077178955 1.6112366 -0.27290344q0.7881775 -0.3656311 1.2963257 -1.0870361q0.50961304 -0.736969 0.89471436 -2.144699zm6.7260437 4.2076416l-0.3932495 1.3285065q-0.6044922 0.08465576 -1.1645508 0.03224182q-0.980072 -0.0917511 -1.5112915 -0.6122589q-0.40005493 -0.41409302 -0.34085083 -1.0362854q0.029632568 -0.3110962 0.37252808 -1.4402924l1.699707 -5.490494l-1.2912292 -0.12086487l0.3843994 -1.2351837l1.2912292 0.12086487l0.72283936 -2.3177185l1.990448 -0.9593048l-1.06427 3.4313812l1.6179504 0.15144348l-0.39993286 1.2337189l-1.6023865 -0.14997864l-1.6278687 5.230423q-0.2984619 0.99212646 -0.3177185 1.1943359q-0.026641846 0.27998352 0.114105225 0.4500885q0.15634155 0.17156982 0.54525757 0.2079773q0.5444946 0.050964355 0.97488403 -0.018600464zm8.58017 -1.1428375l1.5875854 0.30552673q-0.45477295 1.150116 -1.8014832 2.106903q-1.3311462 0.9582367 -3.0579834 0.79660034q-1.0578613 -0.09901428 -1.9127808 -0.68122864q-0.839386 -0.5807495 -1.2172852 -1.557724q-0.3764038 -0.9925232 -0.26242065 -2.1902313q0.15100098 -1.5865784 1.0228271 -2.9958344q0.8718262 -1.4092712 2.0911255 -2.0170288q1.2363586 -0.6218567 2.5898132 -0.49516296q1.7268372 0.1616211 2.6514587 1.3310089q0.9260864 1.1538391 0.74990845 3.0048523q-0.06808472 0.71551514 -0.26361084 1.4504852l-7.093994 -0.6640167q-0.07330322 0.2756195 -0.09402466 0.49339294q-0.1288147 1.3532562 0.42538452 2.1270142q0.5541687 0.7737732 1.4564819 0.8582306q0.8400879 0.07862854 1.7008667 -0.39006042q0.8778076 -0.48280334 1.4281311 -1.482727zm-4.53244 -2.8410187l5.398285 0.50527954q0.039245605 -0.247406 0.049591064 -0.35629272q0.11694336 -1.2288208 -0.44314575 -1.9403687q-0.55862427 -0.72709656 -1.5231628 -0.8173828q-1.0578613 -0.09902954 -1.9986572 0.5505066q-0.92370605 0.63542175 -1.4829102 2.058258zm12.852234 6.9153595l4.0348816 -13.0401l4.0137024 0.3757019q1.4468079 0.13542175 2.188385 0.42453003q1.0623474 0.3819275 1.7565308 1.1687927q0.7097473 0.7883301 0.99505615 1.913559q0.28677368 1.1096802 0.1579895 2.4629517q-0.15249634 1.6021271 -0.7605896 2.8791351q-0.6066284 1.2614594 -1.4962463 2.1982574q-0.8725891 0.922699 -1.78302 1.4181213q-0.90893555 0.47988892 -2.1178894 0.64920044q-0.90600586 0.11921692 -2.197235 -0.0016479492l-4.791565 -0.4485016zm2.243805 -1.3122253l2.1001892 0.19657898q1.4312439 0.13397217 2.5609741 -0.027069092q0.6993103 -0.09147644 1.2126465 -0.37298584q0.69189453 -0.34326172 1.2844849 -0.9626007q0.7688904 -0.82255554 1.2814331 -1.9201965q0.5281067 -1.0961761 0.66726685 -2.558319q0.15249634 -1.6021423 -0.3246765 -2.5256195q-0.47714233 -0.92349243 -1.3216858 -1.2850189q-0.6341553 -0.2633667 -1.9876099 -0.39006042l-2.3490906 -0.21987915l-3.123932 10.06517zm15.199768 2.9449768l-1.285614 -13.538101l1.7112732 0.16018677l0.78512573 8.077072q0.22982788 2.2028809 0.22845459 3.5366821q1.0029297 -1.6324005 1.6265869 -2.5783844l5.5739136 -8.266525l1.8357239 0.17182922l-8.561951 12.616364l-1.9135132 -0.17912292zm7.16745 0.67089844l0.56658936 -1.8301697l1.8668213 0.17474365l-0.49768066 1.6012115q-0.45031738 1.4330292 -1.1673584 2.0407104q-0.7029724 0.6247101 -1.5845337 0.65205383l0.20812988 -0.7024231q1.1185913 -0.20915222 1.6192322 -1.8414764l-1.0112 -0.09465027zm10.088135 0.9442749l4.0504456 -13.038635l1.7734985 0.16600037l-1.6767578 5.4141693l6.891754 0.64508057l1.6767578 -5.4141693l1.7734985 0.16600037l-4.0348816 13.0401l-1.7890625 -0.16746521l1.9033813 -6.146225l-6.87619 -0.643631l-1.9189453 6.1447754l-1.7734985 -0.16600037zm13.886658 -2.3881073q0.26794434 -2.8153992 2.1087036 -4.510605q1.5140991 -1.396225 3.738739 -1.1879883q1.7424011 0.16308594 2.6966553 1.3509369q0.9697876 1.1893158 0.79364014 3.040329q-0.15692139 1.6488037 -0.96209717 3.0172272q-0.80514526 1.3684082 -2.122223 2.0140991q-1.3171082 0.6456909 -2.6861267 0.5175476q-1.1201172 -0.10484314 -1.9920654 -0.6729584q-0.87197876 -0.56811523 -1.2868958 -1.4857788q-0.39788818 -0.93174744 -0.28833008 -2.0828094zm1.6638489 -0.0011901855q-0.1288147 1.3532562 0.4579773 2.11438q0.5867615 0.76112366 1.582428 0.85432434q0.52893066 0.04951477 1.061554 -0.104644775q0.5496521 -0.16825867 1.0267029 -0.5630188q0.49261475 -0.39331055 0.85705566 -0.92414856q0.3644104 -0.5308533 0.6118164 -1.151123q0.36587524 -0.8759613 0.44433594 -1.7003632q0.12435913 -1.3065948 -0.4609375 -2.0832672q-0.5838318 -0.7922363 -1.5794678 -0.885437q-0.77786255 -0.07279968 -1.4512024 0.24081421q-0.6578369 0.31506348 -1.2392883 0.9825287q-0.5800171 0.65190125 -0.9177551 1.5618896q-0.32217407 0.911438 -0.393219 1.6580658zm11.993134 3.6178284l-0.3932495 1.3285065q-0.6044922 0.08465576 -1.1645508 0.032226562q-0.98010254 -0.09173584 -1.5112915 -0.6122589q-0.40005493 -0.41407776 -0.34085083 -1.0362701q0.02960205 -0.3110962 0.37249756 -1.4403076l1.6997375 -5.4904785l-1.2912292 -0.12086487l0.3843689 -1.2351837l1.2912292 0.12086487l0.72283936 -2.3177185l1.9904785 -0.9593048l-1.06427 3.4313812l1.6179199 0.15144348l-0.39993286 1.2337189l-1.602356 -0.1499939l-1.6278992 5.230438q-0.2984619 0.99212646 -0.3177185 1.1943359q-0.026641846 0.27998352 0.11413574 0.4500885q0.15631104 0.17156982 0.54525757 0.2079773q0.5444946 0.050964355 0.97488403 -0.018600464zm6.538269 1.9616241l4.0504456 -13.0386505l5.553833 0.51986694q1.4468384 0.13542175 2.1298828 0.54460144q0.6845093 0.39363098 1.0742798 1.24617q0.40673828 0.8384247 0.31201172 1.8339386q-0.07849121 0.82440186 -0.50213623 1.6478729q-0.4081421 0.82492065 -0.9747925 1.3368378q-0.56518555 0.4963684 -1.1207886 0.72683716q-0.555603 0.23048401 -1.1600952 0.31513977q-1.303772 0.1761322 -2.6105957 0.05381775l-3.3291626 -0.31163025l-1.6338196 5.2926483l-1.7890625 -0.16744995zm3.877594 -6.6048737l2.9403076 0.27520752q1.6956787 0.15872192 2.5231323 -0.12477112q0.8444824 -0.29759216 1.3978271 -0.9990692q0.5548096 -0.717041 0.6347656 -1.5570068q0.062194824 -0.6532898 -0.16381836 -1.0824738q-0.20892334 -0.44326782 -0.65789795 -0.6736145q-0.44744873 -0.24589539 -1.7542114 -0.36820984l-3.407013 -0.3189087l-1.513092 4.8488464zm8.200684 7.735428l4.050476 -13.038635l1.6334839 0.15289307l-4.034912 13.0401l-1.6490479 -0.15435791zm10.997681 -0.72824097q-1.9133301 1.7982635 -3.7335205 1.6278839q-1.1045532 -0.103393555 -1.7283325 -0.8052063q-0.62384033 -0.70181274 -0.5350342 -1.6351013q0.057739258 -0.6066284 0.49395752 -2.056656l1.6953125 -5.4438324l1.6490479 0.15435791l-1.8775024 6.038803q-0.24365234 0.74617004 -0.2850952 1.1817017q-0.051818848 0.54441833 0.24523926 0.88609314q0.31414795 0.32757568 0.95196533 0.38728333q0.70007324 0.06552124 1.3845825 -0.19996643q0.6859741 -0.28105164 1.2074585 -0.81288147q0.5369873 -0.5303955 0.9221802 -1.279007q0.23406982 -0.4802704 0.6184082 -1.7154541l1.2664795 -4.0715637l1.6490479 0.15435791l-2.9387817 9.439072l-1.5090332 -0.14125061l0.5236206 -1.7086334zm3.423462 2.9569092l1.6497803 0.31137085q-0.08441162 0.5570526 0.04449463 0.851593q0.12896729 0.29455566 0.45635986 0.48213196q0.41638184 0.24298096 1.132019 0.30996704q1.4779053 0.13833618 2.2053223 -0.5782318q0.48443604 -0.47253418 1.0065918 -2.165619l0.24511719 -0.76171875q-1.4140625 1.1701813 -2.845337 1.0362091q-1.4623413 -0.1368866 -2.355835 -1.3033447q-0.8779907 -1.1650238 -0.6899414 -3.1404724q0.15393066 -1.617691 1.0606079 -2.8981476q0.90808105 -1.2960052 2.046692 -1.8799438q1.1400146 -0.5994873 2.2601318 -0.4946289q1.8979492 0.17764282 2.7544556 2.0625458l0.47625732 -1.540451l1.5090332 0.14125061l-2.8284302 9.1041565q-0.45770264 1.510788 -1.0680542 2.3167877q-0.59484863 0.8074646 -1.5570679 1.1881866q-0.96380615 0.396286 -2.177246 0.28269958q-1.1511841 -0.10775757 -1.9616699 -0.4974823q-0.8119507 -0.37417603 -1.177185 -0.9890137q-0.34973145 -0.61338806 -0.27868652 -1.3600159q0.020751953 -0.21775818 0.09259033 -0.47782898zm2.5420532 -4.9408417q-0.0947876 0.99549866 0.044555664 1.5107269q0.19934082 0.7091675 0.6616211 1.1290741q0.47784424 0.42137146 1.1001587 0.47961426q0.80895996 0.07572937 1.6556396 -0.4099884q0.84820557 -0.5012512 1.4584961 -1.6368103q0.6118164 -1.151123 0.71398926 -2.2243958q0.11395264 -1.1977234 -0.4883423 -1.9602966q-0.586792 -0.76112366 -1.5513306 -0.8514099q-0.60668945 -0.056777954 -1.197876 0.21743774q-0.58966064 0.25868225 -1.1355591 0.88238525q-0.5444336 0.6081543 -0.88067627 1.502594q-0.3363037 0.89442444 -0.38067627 1.3610687zm6.3727417 5.1161804l8.463379 -13.064987l1.4157104 0.13250732l-8.447876 13.066437l-1.4312134 -0.13395691zm11.083252 -12.600067l1.7734985 0.16601562l-2.4899902 8.021606q-0.2984619 0.99212646 -0.34436035 1.4743195q-0.10211182 1.0732727 0.67578125 1.8052063q0.77789307 0.7319336 2.0690918 0.85279846q1.0112305 0.09465027 1.9268188 -0.29045105q0.9156494 -0.38508606 1.5148926 -1.239212q0.600708 -0.8696747 1.1931763 -2.8072662l2.2218628 -7.1835785l1.7890625 0.16746521l-2.376648 7.6555786q-0.59399414 1.9531403 -1.3895264 3.0556793q-0.7955322 1.1025238 -2.0755615 1.6889038q-1.2645264 0.58784485 -2.8668823 0.4378662q-1.4934692 -0.13980103 -2.5506592 -0.7409363q-1.05719 -0.60113525 -1.5343018 -1.5246277q-0.46014404 -0.93759155 -0.35357666 -2.0575256q0.06665039 -0.69996643 0.6013794 -2.360489l2.2159424 -7.121353zm9.083862 14.268051l2.9232178 -9.4405365l1.4934692 0.13978577l-0.5177002 1.6464233q1.0592651 -0.9052124 1.9422607 -1.2776642q0.8985596 -0.3710022 1.7697754 -0.28945923q1.182312 0.110672 1.7750244 0.8095703q0.6097412 0.68481445 0.50756836 1.7580872q-0.05029297 0.52885437 -0.39318848 1.6580658l-1.7841797 5.717987l-1.6334839 -0.15289307l1.8560181 -5.978058q0.27105713 -0.8691406 0.3125 -1.3046722q0.045898438 -0.482193 -0.25268555 -0.8083191q-0.29858398 -0.3261261 -0.9208374 -0.3843689q-1.2756958 -0.119400024 -2.3416138 0.6910248q-1.065979 0.81044006 -1.7429199 2.975525l-1.3597412 4.392395l-1.6334839 -0.15289307zm10.501709 0.98298645l4.050415 -13.0386505l5.553833 0.5198517q1.4468384 0.13543701 2.1298828 0.5446167q0.6845093 0.39363098 1.0742188 1.24617q0.40679932 0.8384247 0.31207275 1.8339386q-0.07849121 0.82440186 -0.50213623 1.6478729q-0.4081421 0.82492065 -0.9747925 1.3368378q-0.5652466 0.4963684 -1.1207886 0.72683716q-0.555603 0.23048401 -1.1600952 0.31513977q-1.303772 0.1761322 -2.6105957 0.05381775l-3.3291626 -0.31163025l-1.6338501 5.2926483l-1.7890015 -0.16744995zm3.8775635 -6.6048737l2.9402466 0.27520752q1.6957397 0.15872192 2.5231934 -0.12477112q0.8444824 -0.29759216 1.3978271 -0.9990692q0.5548096 -0.717041 0.6347656 -1.5570068q0.06213379 -0.6532898 -0.16381836 -1.0824738q-0.20892334 -0.44326782 -0.65789795 -0.6736145q-0.44744873 -0.24589539 -1.7542725 -0.36820984l-3.4069824 -0.3189087l-1.5130615 4.8488464zm8.200684 7.735428l4.050415 -13.0386505l1.6334839 0.15290833l-4.034912 13.040085l-1.6489868 -0.15434265zm10.99762 -0.72824097q-1.9133301 1.7982483 -3.7335205 1.6278839q-1.1045532 -0.103393555 -1.7283325 -0.8052063q-0.62384033 -0.70181274 -0.53497314 -1.6351013q0.057739258 -0.6066284 0.49395752 -2.0566711l1.6952515 -5.443817l1.6490479 0.15435791l-1.8775024 6.038803q-0.24365234 0.74617004 -0.2850952 1.1817017q-0.051818848 0.54441833 0.2453003 0.88609314q0.3140869 0.32757568 0.95196533 0.38726807q0.70007324 0.0655365 1.3845215 -0.19995117q0.6859741 -0.28105164 1.2074585 -0.8128967q0.53704834 -0.53038025 0.9221802 -1.2789917q0.23406982 -0.4802704 0.61846924 -1.7154541l1.2664185 -4.0715637l1.6490479 0.15435791l-2.9387817 9.439072l-1.5090332 -0.14125061l0.5236206 -1.7086334zm3.423523 2.9569092l1.6497803 0.3113556q-0.08441162 0.5570679 0.04449463 0.8516083q0.12890625 0.29455566 0.45635986 0.48213196q0.41638184 0.24298096 1.132019 0.30996704q1.4779053 0.13833618 2.2053223 -0.5782318q0.48443604 -0.47253418 1.0065918 -2.165619l0.24511719 -0.76171875q-1.4141235 1.1701813 -2.845337 1.0362091q-1.4623413 -0.1368866 -2.355896 -1.3033447q-0.8779297 -1.1650238 -0.6898804 -3.1404724q0.15393066 -1.617691 1.0606079 -2.8981476q0.90808105 -1.2960052 2.046692 -1.8799438q1.1400146 -0.5994873 2.2601318 -0.49464417q1.8979492 0.17765808 2.7544556 2.062561l0.47625732 -1.540451l1.5089722 0.14125061l-2.8283691 9.1041565q-0.45770264 1.510788 -1.0680542 2.3167877q-0.59484863 0.8074646 -1.5571289 1.1881866q-0.9637451 0.396286 -2.177185 0.28269958q-1.1511841 -0.10775757 -1.9616699 -0.4974823q-0.8119507 -0.37417603 -1.1772461 -0.9890137q-0.3496704 -0.61338806 -0.2786255 -1.3600159q0.020751953 -0.21775818 0.09259033 -0.47782898zm2.5420532 -4.9408417q-0.0947876 0.99549866 0.044555664 1.5107269q0.19934082 0.7091675 0.6616211 1.1290741q0.47784424 0.42137146 1.1000977 0.47961426q0.80895996 0.07572937 1.6557007 -0.4099884q0.84814453 -0.5012512 1.4584961 -1.6368103q0.6118164 -1.151123 0.71398926 -2.2243958q0.11395264 -1.1977234 -0.4883423 -1.9602966q-0.586792 -0.76112366 -1.5513306 -0.8514099q-0.6067505 -0.056793213 -1.197876 0.21743774q-0.58966064 0.25868225 -1.1355591 0.88238525q-0.5444336 0.6081543 -0.8807373 1.502594q-0.33624268 0.89442444 -0.38061523 1.3610687z" fill-rule="nonzero"/><path fill="#000000" fill-opacity="0.0" d="m176.0 200.0l48.0 0l0 48.0l-48.0 0z" fill-rule="evenodd"/><path fill="#000000" d="m190.25 226.92l-5.171875 -13.359375l1.921875 0l3.46875 9.703125q0.421875 1.171875 0.703125 2.1875q0.3125 -1.09375 0.71875 -2.1875l3.609375 -9.703125l1.796875 0l-5.234375 13.359375l-1.8125 0zm8.584198 0l0 -13.359375l2.65625 0l3.15625 9.453125q0.4375 1.328125 0.640625 1.984375q0.234375 -0.734375 0.703125 -2.140625l3.203125 -9.296875l2.375 0l0 13.359375l-1.703125 0l0 -11.171875l-3.875 11.171875l-1.59375 0l-3.859375 -11.375l0 11.375l-1.703125 0z" fill-rule="nonzero"/><path fill="#000000" fill-opacity="0.0" d="m653.49603 72.0l48.0 0l0 48.0l-48.0 0z" fill-rule="evenodd"/><path fill="#000000" d="m667.74603 98.92l-5.171875 -13.359375l1.921875 0l3.46875 9.703125q0.421875 1.171875 0.703125 2.1875q0.3125 -1.09375 0.71875 -2.1875l3.609375 -9.703125l1.796875 0l-5.234375 13.359375l-1.8125 0zm8.5842285 0l0 -13.359375l2.65625 0l3.15625 9.453125q0.4375 1.328125 0.640625 1.984375q0.234375 -0.734375 0.703125 -2.140625l3.203125 -9.296875l2.375 0l0 13.359375l-1.703125 0l0 -11.171875l-3.875 11.171875l-1.59375 0l-3.859375 -11.375l0 11.375l-1.703125 0z" fill-rule="nonzero"/></g></svg>